<svg id="BENG" xmlns="http://www.w3.org/2000/svg" viewBox="0 0 201 90">
  <style>
    .st0{fill:#fff}
  </style>
  <title>
    NFLSHOP_3C_TLP_cincinnati_bengals
  </title>
  <path class="st0" d="M119.7 31.4c0-2.7 1-4.6 4.8-4.6 1.2 0 2.4.3 3.4.9l-1.2 2.7c-.6-.3-1.2-.5-1.9-.5-1.3 0-1.8.6-1.8 1.6v6.3c0 1 .5 1.6 1.8 1.6.7 0 1.3-.2 1.9-.5l1.2 2.7c-1 .6-2.2 1-3.4.9-3.8 0-4.8-1.9-4.8-4.6V31.4zM128.8 27.1h3.3v15.3h-3.3L128.8 27.1 128.8 27.1zM139.3 42.4l-3-9.2.4 9.2h-3.2V27.1h3.6l3 9.2-.4-9.2h3.2v15.3H139.3zM144.1 31.4c0-2.7 1-4.6 4.8-4.6 1.2 0 2.4.3 3.4.9l-1.2 2.7c-.6-.3-1.2-.5-1.9-.5-1.3 0-1.8.6-1.8 1.6v6.3c0 1 .5 1.6 1.8 1.6.7 0 1.3-.2 1.9-.5l1.2 2.7c-1 .6-2.2 1-3.4.9-3.8 0-4.8-1.9-4.8-4.6V31.4zM153.2 27.1h3.3v15.3h-3.3V27.1zM163.7 42.4l-3-9.2.4 9.2h-3.2V27.1h3.6l3 9.2-.4-9.2h3.2v15.3H163.7L163.7 42.4zM174.4 42.4l-3-9.2.4 9.2h-3.2V27.1h3.6l3 9.2-.4-9.2h3.1v15.3H174.4zM182.3 42.4h-3.5l2.4-15.3h4.9l2.4 15.3H185l-.4-2.9h-2L182.3 42.4zM182.9 36.7h1.4l-.7-6.3L182.9 36.7zM190.7 29.9h-2.6v-2.8h8.5v2.8H194v12.5h-3.3V29.9zM197.6 27.1h3.3v15.3h-3.3V27.1zM129.1 56.5c0 2.7-1.2 4.5-4.7 4.5h-4.6V45.7h4.2c3.5 0 4.7 1.5 4.7 4.2v.2c.1 1.1-.4 2.2-1.3 2.9 1.2.6 1.9 1.9 1.7 3.3L129.1 56.5 129.1 56.5zM123.8 48.5h-.7v3.2h.7c.7.2 1.4-.3 1.6-1 0-.2 0-.4 0-.5C125.4 48.9 125 48.5 123.8 48.5L123.8 48.5zM124.1 54.3h-1v3.8h1c1.3 0 1.6-.5 1.6-1.8S125.5 54.3 124.1 54.3L124.1 54.3zM130.1 61V45.7h8.3v3h-5v3.1h3.8v2.9h-3.8v3.3h5v3L130.1 61 130.1 61zM145.3 61l-3-9.2.4 9.2h-3.2V45.7h3.6l3 9.2-.4-9.2h3.2V61H145.3zM155.7 57.7v-2.9h-1v-2.5h4.1V61h-2.2l-.2-.8c-.7.7-1.7 1.1-2.8 1-2.4 0-3.5-1.5-3.5-4.2v-7c0-2.6 1.3-4.5 5-4.5 1.4-.1 2.7.3 3.9 1l-1.3 2.8c-.7-.4-1.6-.7-2.4-.7-.9-.1-1.7.5-1.9 1.3 0 .1 0 .3 0 .4v5.9c0 1.5.4 1.9 1.2 1.9C155.1 58.1 155.5 58 155.7 57.7zM163 61h-3.5l2.4-15.3h4.9l2.4 15.3h-3.5l-.3-2.9h-2L163 61zM163.7 55.3h1.4l-.7-6.3L163.7 55.3zM170 61V45.7h3.3v12.3h3.7v3L170 61 170 61zM177 59.9l1.2-2.8c.8.6 1.8.9 2.8.9 1.1 0 1.6-.4 1.6-1.4 0-1.2-.9-1.7-2-2.3-1.9-1-3-1.9-3-4.5s1.4-4.4 4.8-4.4c1.3-.1 2.5.3 3.5 1l-1.2 2.8c-.7-.4-1.4-.6-2.2-.6-.7-.1-1.3.3-1.5 1 0 .1 0 .2 0 .3 0 .9.5 1.2 1.7 1.8 2.4 1.2 3.3 2.1 3.3 4.9 0 2.9-1.6 4.6-4.7 4.6C179.8 61.2 178.3 60.8 177 59.9zM90.9 43.8c-.3-.1-.4-.5-.3-.8 0-.1.1-.2.2-.2 4.6-3.4 7.6-7.8 7.6-14.4 0-7.9-5.7-19-27.8-19H13.6L.7 31.9h9.5c1.1 0 1.9.8 1.9 1.9 0 0 0 0 0 0v22.5c0 1.1-.9 1.9-1.9 1.9 0 0 0 0 0 0H0l13 22.4h60.3c19.5 0 27.9-10.2 27.9-21.1C101.3 52.3 96.1 46.5 90.9 43.8z"/>
  <path d="M83.9,44.3c-0.3-0.1-0.5-0.4-0.5-0.7c0-0.2,0.2-0.4,0.4-0.4c6.2-2.3,9.8-6.5,9.8-13.9
	c0.1-9.9-8.6-16.6-22.8-16.6H17.2L7.8,29.3h6.5c1.3,0,2.3,1,2.3,2.3l0,0v26.8c0,1.3-1,2.3-2.3,2.3c0,0,0,0,0,0H7.8l9.5,16.5h56.1
	c16,0,22.6-10.6,22.6-18.5C96,52,90.9,46,83.9,44.3z M57.1,60.8h-7.7c-0.9,0-1.7-0.8-1.7-1.7c0,0,0,0,0,0v-9h9.4
	c4.5,0,6.2,2.2,6.2,5.3S61.6,60.8,57.1,60.8z M57.1,40h-9.4v-9c0-0.9,0.8-1.7,1.7-1.7h7.7c4.5,0,6.2,2.3,6.2,5.3
	C63.3,37.7,61.6,40,57.1,40z" fill="#fb4f14"/>
  <path d="M63.2,12.7c-2.1,5.4-3.8,11-5.2,16.7c-0.3,0-0.6,0-0.9,0h-7.7c-0.9,0-1.7,0.8-1.7,1.7v9h8c-0.5,3.2-1,6.6-1.2,10h-6.8v9
	c0,0.9,0.8,1.7,1.7,1.7c0,0,0,0,0,0h4.7c0.1,5.6,0.6,11.1,1.6,16.6h-7C43.2,64,35.6,41.4,43.2,12.7H63.2z M82.3,14.5
	C71,31.4,64.8,52.9,67.6,72.5c3.4-16.9,12.6-32,26-42.8c0-0.2,0-0.3,0-0.5C93.7,22.5,89.5,17.2,82.3,14.5z M35.4,72.6
	c-9.6-18.4-12.8-39.6-8.9-60h-9.4L7.8,29.3h6.5c1.3,0,2.3,1,2.3,2.3l0,0v20.6C21.5,60.2,27.9,67.1,35.4,72.6z"/>
</svg>
