<svg id="CHEF" xmlns="http://www.w3.org/2000/svg" viewBox="0 0 213.4 90">
  <style>
    .st0{fill:#fff}.st1{fill:#e31837}
  </style>
  <title>
    NFLSHOP_3C_TLP_kansas_city_chiefs
  </title>
  <path class="st0" d="M119.8,44.4V29.1h3.4l-0.1,6.3l2.5-6.3h3.8l-3,6.2l3.2,9.1h-3.9l-1.8-5.7l-0.8,1.7l0.1,4H119.8L119.8,44.4z"/>
  <path class="st0" d="M133 44.4h-3.5l2.4-15.3h4.9l2.4 15.3h-3.5l-.4-2.9h-2L133 44.4zM133.6 38.8h1.4l-.7-6.3L133.6 38.8zM145.7 44.4l-3-9.2.4 9.2h-3.2V29.1h3.6l3 9.2-.4-9.2h3.2v15.3H145.7zM149.9 43.3l1.2-2.8c.8.6 1.8.9 2.8.9 1.1 0 1.6-.4 1.6-1.4 0-1.2-.9-1.7-2-2.3-1.9-1-3-1.9-3-4.5s1.4-4.4 4.8-4.4c1.3-.1 2.5.3 3.5 1l-1.2 2.8c-.7-.4-1.4-.6-2.2-.6-.7-.1-1.3.3-1.4 1 0 .1 0 .2 0 .2 0 .9.5 1.2 1.7 1.8 2.4 1.2 3.3 2.1 3.3 4.9 0 2.9-1.6 4.6-4.7 4.6C152.7 44.7 151.1 44.3 149.9 43.3zM162.7 44.4h-3.5l2.4-15.3h4.9l2.4 15.3h-3.5l-.3-2.9h-2L162.7 44.4zM163.4 38.8h1.4l-.7-6.3L163.4 38.8zM168.9 43.3l1.2-2.8c.8.6 1.8.9 2.8.9 1.1 0 1.6-.4 1.6-1.4 0-1.2-.9-1.7-2-2.3-1.9-1-3-1.9-3-4.5s1.4-4.4 4.8-4.4c1.3-.1 2.5.3 3.5 1l-1.2 2.8c-.7-.4-1.4-.6-2.2-.6-.7-.1-1.3.3-1.4 1 0 .1 0 .2 0 .2 0 .9.5 1.2 1.7 1.8 2.4 1.2 3.3 2.1 3.3 4.9 0 2.9-1.6 4.6-4.7 4.6C171.7 44.7 170.2 44.3 168.9 43.3zM181.6 33.5c0-2.7 1-4.6 4.8-4.6 1.2 0 2.4.3 3.4.9l-1.2 2.7c-.6-.3-1.2-.5-1.9-.5-1.3 0-1.8.6-1.8 1.6V40c0 1 .5 1.6 1.8 1.6.7 0 1.3-.2 1.9-.5l1.2 2.7c-1 .6-2.2 1-3.4.9-3.8 0-4.8-1.9-4.8-4.6V33.5zM190.6 29.1h3.4v15.3h-3.3L190.6 29.1 190.6 29.1zM197.5 31.9h-2.6v-2.8h8.5v2.8h-2.6v12.5h-3.3V31.9zM209.9 29.1h3.5l-3.2 10.7.1 4.6h-3.4l.1-4.6-3.2-10.7h3.5l1.3 7.1L209.9 29.1zM119.7 52.1c0-2.7 1-4.6 4.8-4.6 1.2 0 2.4.3 3.4.9l-1.2 2.7c-.6-.3-1.2-.5-1.9-.5-1.3 0-1.8.6-1.8 1.6v6.3c0 1 .5 1.6 1.8 1.6.7 0 1.3-.2 1.9-.5l1.2 2.7c-1 .6-2.2 1-3.4.9-3.8 0-4.8-1.9-4.8-4.6V52.1zM132 56.8V63h-3.3V47.8h3.3v6.1h2.7v-6.1h3.3V63h-3.3v-6.2H132zM139.4 47.8h3.3V63h-3.3V47.8zM144.2 63V47.8h8.3v3h-5v3.1h3.8v2.9h-3.8V60h5v3L144.2 63 144.2 63zM161.3 47.8v3H157v3.7h3.4v2.9H157V63h-3.3V47.8H161.3L161.3 47.8zM161.5 62l1.2-2.8c.8.6 1.8.9 2.8.9 1.1 0 1.6-.4 1.6-1.4 0-1.2-.9-1.7-2-2.3-1.9-1-3-1.9-3-4.5s1.4-4.4 4.8-4.4c1.3-.1 2.5.3 3.5 1l-1.2 2.8c-.7-.4-1.4-.6-2.2-.6-.7-.1-1.3.3-1.4 1 0 .1 0 .2 0 .2 0 .9.5 1.2 1.7 1.8 2.4 1.2 3.3 2.1 3.3 4.9 0 2.9-1.6 4.6-4.7 4.6C164.3 63.3 162.7 62.9 161.5 62zM100 43.3c-.5-1-1.1-1.8-2-2.5-.9-.8-1.2-1.2-1.5-1.4-1.3-1-.6-.4-1.7-1.3-.9-.6-1.3-.9-2.2-1.5-1.8-1.3-1-.4-2.4-1.7-1-1.5-3-3.7-4.8-4-2-.3-2.9-.9-3.1-1.2-1-1.4-2.2-2.5-3.7-3.4-2.5-1.4-5.3-1.3-7.5-3.2-3.1-2.2-5.2-1.9-7.7-2-1.8-.3-3.6-1-5.1-2-1-.6-2-1-3.2-1.1-4.6.2-4.6-.2-7.3-1.8-.9-.5-1.8-1-2.8-1.3-.8-.2-1.5-.2-2.3-.3-3-.4-2.8.8-5-.4C37 13.9 36 13.5 35 13.2c-1.1-.2-2.1-.3-3.2-.3-2.1-.1-2.9.9-6 .3-3.5-.7-6.6-1.3-8.1.1-2.1 1.4-2.7 4-2 6.6s1 3.6 1.5 5.3c1 2.9.2 1.1-.7.6-1.6-1.1-3.6-1.2-5.3-.2-2.4 1.5-2.2.1-3.8-.1-.5-.1-1-.1-1.5 0-.8.1-1.6.6-2 1.2-.5.5-.8 1.2-1 1.9-.3.9-.3 1.8-.2 2.7.1 1.2.4 1.6.6 2.4.3 2.2-.3 2.8-1 4-.4.7-1 2.3-1.2 3-.5 1.3-.8 2.6-.9 3.9C.1 46 0 47 0 48c0 1 .1 1.9.3 2.9.2 1.4.5 2.8.9 4.2.5 1.5.6 3.1.3 4.6-.2 1.7-.5 2.6.3 3.9.5.8 1.2 1.3 2.1 1.6.9.3 1.8.4 2.7.2 1.2-.2 2.3-.7 3.3-1.3 1.2-.4 2.7.9 4.6.1 1.9-1 1.1.8 1.1.8-.8 2.3-1.5 4.7-2 7.1-.2 1.2.1 2.5.9 3.4.9.9 2.1 1.6 3.4 1.8 1 .2 2 .2 3 0 0-.1.5-.1.5-.1l1.5-.3 1-.2c.9-.1 1.8-.2 2.7-.2 1.7-.1 3.3.5 4.9.5.8.1 1.7.1 2.5 0 1.7-.2 3.4-.8 4.9-1.6 2.1-1 2.9-.4 3.8-.5 1.9-.1 3.7-.5 5.4-1.2 1-.6 1.8-.9 2.5-1.2 2.7-1.3 3.8-1 6.6-1.6 2.4-.5 2.6-1.2 4.8-1.8.9-.2 1.9-.4 2.8-.5 1.1-.3 2.1-.8 3-1.5.6-.5 1.1-1 1.8-1.4 1.8-1.1 2.1-.4 4.8-1.6 1.7-.8 3.2-1.8 4.7-2.9 1.6-1.2 3.3-1.2 5.8-2.4 1.2-.6 2.6-1.5 4.2-4.2 1.1-1.9 3.1-1.3 5.7-2.9.9-.5 1.7-1.2 2.3-1.9.9-.9 1.7-2 2.3-3.2C100.1 45.5 100.6 44.6 100 43.3zM97.2 46.6c-.5.9-1.2 1.6-1.9 2.3-.9.9-2.1 1.6-3.3 1.9-2.3.7-3.4 1-4.7 3.2-.8 1.6-2.3 2.8-4 3.5-2 .7-4.5 1.2-6 2.7-1.1 1-2.4 1.7-3.8 2.2-1.4.7-3.1.6-4.5 1.5-.7.4-1.3.9-1.8 1.6-.7.6-1.5 1.1-2.4 1.3-.8.1-1.7.2-2.5.3-2 .5-2.7 1.4-4.5 1.8-2.6.6-5.2.5-7.5 1.7-.6.3-.9.4-1.8.9-1.1.7-2.3 1.2-3.6 1.3-1.8.1-1.8-.2-3.8 0-2.4.3-3.3 1.2-5.4 1.8-.7.2-1.4.4-2.1.4-1.4.1-2.9 0-4.3-.3-1.2-.2-2.5-.3-3.7-.1h-1c0 .1-1.1 0-1.1.1-.6.1-1.2.2-1.9.4-1.3.4-2.7.4-4 0-2.8-1.1-1.4-3.9-1.1-5.1.3-1.3.9-2.9 1.4-4.6 0 0 .3-1.4.3-1.4.1-1.3-.2-1.8-.8-2.2-.5-.2-1.1-.3-1.7-.2-.5 0-1.7.7-2.3.8s-1.8-.6-3.5-.4c-1 .3-2.1.7-3 1.3-1.1.4-2.3.2-3.2-.6-.9-1 0-2.4.1-3.9 0-1.5-.2-3-.6-4.5-.3-1.3-.6-2.3-.8-3.8C2.2 49.8 2 47.7 2 47.5c.1-.9.1-2 .2-3 .2-1.2.4-2.4.9-3.6.3-1 .7-1.9 1.3-2.8.8-1.2 1.1-2.6 1-4-.1-.8-.3-1.6-.6-2.3-.1-.6-.1-1.3 0-1.9 0-.8.4-1.5 1-1.9.4-.4 1-.5 1.6-.4 1 .5 1.1 1.2 2.6.8s3-1.7 4.3-1.5c1 .2 1.5 1.1 2.3 1.8.6.4 1.5.5 2.1.1 1.3-.5 1.3-2.3.7-3.8-.5-1.3-.7-2.3-1.3-4.2-.3-.7-.5-1.5-.5-2.3-.1-.9 0-1.8.4-2.5.4-.7 1.1-1.3 1.9-1.4 3.1-.3 6.1 1.3 9.3.7 1.5-.4 3.1-.5 4.6-.2 1 .2 1.9.5 2.8 1 .9.5 1.5 1 2.4.9 1.7-.3 3.5-.3 5.2 0 .7.1 1.3.3 1.9.7.9.4 1.7 1.1 2.7 1.5 3.2 1.6 4.8.4 7.1 1.1.8.2 1.5.6 2.1 1.1 1.5 1 3.2 1.7 4.9 1.9 3.3.1 4.1-.3 7.2 1.9 2.1 1.8 4.7 1.6 7 2.9 1.2.5 2.2 1.4 3 2.5.7 1 1.8 1.8 3 2.1 1.7.4 3.3.6 4.4 2.6.7 1.1 1.7 2 2.9 2.6.9.5 1.1.9 1.9 1.4.5.3 1 .6 1.4 1 .6.4 1.2.8 1.7 1.3.7.6 1.4 1.4 2.1 2.1C98.8 44.5 97.7 45.8 97.2 46.6L97.2 46.6z"/>
  <path d="M95.6,41.4c-0.5-0.5-1.1-0.9-1.7-1.3c-0.4-0.4-0.9-0.7-1.4-1c-0.8-0.5-1.1-1-1.9-1.4c-1.2-0.6-2.2-1.5-2.9-2.6
	c-1.1-2-2.7-2.2-4.4-2.6c-1.2-0.3-2.3-1.1-3-2.1c-0.8-1.1-1.8-1.9-3-2.5c-2.3-1.2-4.9-1-7-2.9c-3.1-2.2-3.9-1.8-7.2-1.9
	c-1.8-0.2-3.5-0.8-4.9-1.9c-0.6-0.5-1.3-0.9-2.1-1.1c-2.3-0.7-3.9,0.5-7.1-1.1c-1-0.5-1.8-1.1-2.7-1.6c-0.6-0.3-1.2-0.6-1.9-0.7
	c-1.7-0.3-3.5-0.3-5.2,0c-1,0.1-1.5-0.4-2.4-0.9c-0.9-0.5-1.8-0.8-2.8-1c-1.5-0.2-3.1-0.1-4.6,0.2c-3.2,0.6-6.2-1-9.3-0.7
	c-0.8,0.2-1.5,0.7-1.9,1.4c-0.4,0.8-0.5,1.7-0.4,2.6c0,0.8,0.2,1.6,0.5,2.3c0.6,1.9,0.9,2.9,1.3,4.2c0.5,1.6,0.5,3.4-0.7,3.9
	c-0.7,0.3-1.5,0.2-2.1-0.1c-0.9-0.7-1.4-1.6-2.3-1.8c-1.3-0.3-2.9,1.1-4.3,1.5S8.4,28,7.4,27.5c-0.6-0.2-1.2,0-1.6,0.3
	c-0.6,0.5-1,1.2-1,1.9c-0.1,0.6-0.1,1.3,0,1.9C5,32.5,5.2,33.3,5.4,34c0.1,1.4-0.2,2.8-1,4c-0.5,0.9-1,1.9-1.3,2.9
	c-0.4,1.2-0.7,2.4-0.8,3.6c-0.2,1-0.1,2.1-0.2,3c0,0.2,0.1,2.2,0.2,2.8c0.2,1.5,0.5,2.5,0.9,3.8c0.4,1.4,0.6,2.9,0.6,4.5
	c0,1.5-1,2.8-0.1,3.9c0.8,0.8,2,1.1,3.1,0.7c0.9-0.5,2-1,3-1.3c1.7-0.2,2.8,0.5,3.5,0.4s1.8-0.7,2.3-0.8c0.6-0.1,1.2,0,1.7,0.2
	c0.5,0.4,0.8,0.8,0.8,2.2c0,0-0.3,1.4-0.3,1.4c-0.5,1.8-1.1,3.4-1.4,4.6c-0.3,1.2-1.7,4,1.1,5.1c1.3,0.4,2.7,0.4,4,0
	c0.6-0.2,1.2-0.3,1.9-0.4c0-0.1,1.1,0,1.1-0.1h1c1.2-0.2,2.5-0.1,3.7,0.1c1.4,0.3,2.8,0.4,4.3,0.3c0.7-0.1,1.4-0.2,2.1-0.4
	c2-0.6,2.9-1.5,5.4-1.8c2-0.3,2,0.1,3.8,0c1.3-0.1,2.6-0.5,3.6-1.3c0.9-0.5,1.2-0.6,1.8-0.9c2.3-1.2,5-1.1,7.5-1.7
	c1.8-0.4,2.5-1.3,4.5-1.8c0.8-0.2,1.7-0.3,2.5-0.3c0.9-0.2,1.7-0.7,2.4-1.3c0.5-0.6,1.2-1.1,1.8-1.5c1.4-0.8,3.1-0.8,4.5-1.5
	c1.4-0.5,2.7-1.3,3.8-2.2c1.6-1.6,4-2,6-2.7c1.7-0.6,3.2-1.8,4-3.5c1.3-2.3,2.4-2.6,4.8-3.3c1.3-0.3,2.4-0.9,3.3-1.9
	c0.7-0.7,1.4-1.5,1.9-2.3c0.5-0.8,1.6-2.1,0.5-3.1C97.1,42.7,96.4,42.1,95.6,41.4z M93.8,47.4c-2.2,1.2-4.1,0.8-6,2.9
	c-1.7,1.7-3.5,3.8-4.7,4.1c-1,0.3-2,0.7-2.9,1.2C79.4,56,78.7,56.5,78,57c-1,1-2.2,1.8-3.5,2.2c-1.2,0.4-2.5,0.6-3.8,1
	c-0.8,0.3-1.7,0.6-2.4,1.1c-1.2,0.7-2.7,2.3-4.7,2.7c-4,0.8-2.9,0.7-5.8,2c-1,0.4-2.1,0.6-3.2,0.7c-1.6,0-3.2,0.3-4.6,1.1
	c-1.1,0.6-2.2,1.7-4.4,1.9c-2.7,0.4-2.8,0-6.1,0.7c-1.1,0.4-2.2,0.8-3.2,1.3c-1.8,0.4-3.6,0.5-5.4,0.3c-1.9-0.2-3.7-0.1-5.6,0.3
	c-1.6,0.3-3.3,0.4-4.9,0.4c-0.4-0.1-0.8-0.4-1-0.8c-0.3-0.5-0.4-1-0.3-1.6c0.1-0.8,0.2-1.6,0.4-2.4c0.1-0.4,0.5-2.6,0.6-3
	c0.5-2.2,0.6-4.4-1.1-5.4c-0.9-0.4-1.9-0.5-2.9-0.3c-2.9,0.5-2.3,1-4.2,0.3c-0.5-0.2-1-0.2-1.6-0.2c-0.9,0-2.3,0.7-3.4,0.9
	C6.2,60.1,6,59.2,6,58.5c0-1,0.1-2,0.1-3.2c-0.1-3-0.6-3.2-1-5c-0.3-1.6-0.2-4.4-0.3-4.3c0.1-1.9,0.7-3.8,1.7-5.5
	C7,39.8,7.4,39,7.7,38.2c0.4-1.1,0.5-2.3,0.2-3.5c-0.1-0.3-0.2-0.7-0.2-1c-0.1-0.6,0-1.2,0.3-1.7c0.2-0.5,0.5-1,1-1.2
	c0.3-0.2,0.7-0.3,1-0.3c1.1-0.1,1.3,0.6,3.3-0.2c0.9-0.2,1.8-0.1,2.6,0.3c1.4,0.8,3.1,0.7,4.5-0.1c0.4-0.2,0.8-0.5,1.1-0.8
	c0.3-0.5,0.5-1.1,0.6-1.8c0.2-0.8,0.2-1.6,0.1-2.4c-0.5-1.7-0.6-2.1-0.9-3.2c-0.3-0.8-0.5-1.7-0.7-2.5v-1c-0.1-0.6,0.3-1.3,0.9-1.4
	c0.1,0,0.2,0,0.2,0c2.5,0,4.9,0.7,7.5,0.7c2.2,0,3.1-0.5,5.7,0.5c0.9,0.3,1.4,1.1,2.8,1.5c2.7,0.8,4.8-1,7.1,0
	c1.9,0.9,1.5,0.4,3.3,1.5c1.4,0.9,3,1.5,4.6,1.8c1.5,0.2,4-0.4,6.5,1.4c1.3,1,2.9,1.5,4.5,1.6c2.1,0.2,2.3-0.1,4,1.1
	c1.2,0.9,0.9,0.7,2.2,1.6c0.6,0.5,1.2,0.9,1.8,1.2c0.7,0.2,1.5,0.4,2.2,0.5c1.1-0.1,2.2,0.1,3.3,0.4c0,0,1.6,1.1,1.3,0.9
	c0.9,0.8,1.7,1.8,2.4,2.8c0.8,1,1.9,1.6,3.2,1.7c-0.4-0.1,2,0.8,2.4,1c0.8,0.5,1.5,1.1,2.1,1.8c0.9,1,1.9,1.8,3,2.5
	c0.7,0.5,0.8,0.6,2.1,1.6c0.6,0.4,1.1,0.9,1.5,1.5C96,46.2,95.1,46.7,93.8,47.4z"/>
  <path class="st0" d="M93.9,43.4c-1.3-0.9-1.4-1.1-2.1-1.6c-1.1-0.6-2.1-1.5-3-2.5c-0.5-0.8-1.2-1.4-2.1-1.8c-0.4-0.2-2.8-1-2.4-1
	c-1.3-0.1-2.4-0.7-3.2-1.7c-0.6-1.1-1.4-2-2.4-2.8c0.3,0.2-1.4-0.9-1.3-0.9c-1.1-0.3-2.2-0.5-3.3-0.4c-0.7-0.1-1.5-0.3-2.2-0.5
	c-0.7-0.3-1.3-0.7-1.8-1.2c-1.2-0.9-0.9-0.7-2.2-1.6c-1.7-1.2-1.9-0.9-4-1.1c-1.6-0.1-3.2-0.7-4.5-1.6c-2.5-1.8-5-1.2-6.5-1.4
	c-1.7-0.2-3.2-0.8-4.6-1.8c-1.8-1.1-1.4-0.6-3.3-1.5c-2.3-1.1-4.4,0.7-7.1,0c-1.4-0.4-1.9-1.1-2.8-1.5c-2.6-0.9-3.5-0.5-5.7-0.5
	c-2.7,0-5-0.7-7.5-0.7c-0.6,0-1.2,0.5-1.2,1.2c0,0.1,0,0.2,0,0.2v1c0.2,0.9,0.4,1.7,0.7,2.5c0.3,1.1,0.5,1.5,0.9,3.2
	c0.1,0.8,0.1,1.6-0.1,2.4c-0.1,0.6-0.3,1.2-0.6,1.8c-0.3,0.4-0.7,0.6-1.1,0.8c-1.4,0.8-3.1,0.9-4.5,0.1c-0.8-0.5-1.7-0.6-2.6-0.3
	c-2,0.9-2.2,0.2-3.3,0.2c-0.3,0-0.7,0.2-1,0.3C8.5,31,8.1,31.5,8,32c-0.2,0.5-0.3,1.1-0.3,1.7c0,0.3,0.1,0.7,0.2,1
	c0.3,1.1,0.3,2.4-0.2,3.5C7.4,39,7,39.8,6.5,40.5c-1,1.7-1.6,3.6-1.7,5.6c0.1-0.1,0,2.7,0.3,4.3c0.4,1.8,0.9,2,1,5
	C6.2,56.5,6,57.5,6,58.5c0,0.7,0.2,1.6,1,1.5c1.2-0.2,2.5-0.8,3.4-0.9c0.5,0,1.1,0.1,1.6,0.2c1.9,0.7,1.3,0.2,4.2-0.3
	c1-0.2,2,0,2.9,0.3c1.7,1,1.6,3.2,1.1,5.4c-0.1,0.3-0.5,2.6-0.6,3c-0.2,0.8-0.4,1.6-0.4,2.4c-0.1,0.6,0,1.1,0.3,1.6
	c0.2,0.4,0.6,0.7,1,0.8c1.6,0.1,3.3,0,4.9-0.4c1.8-0.4,3.7-0.5,5.6-0.3c1.8,0.2,3.6,0.1,5.4-0.3c1.1-0.5,2.1-0.9,3.2-1.3
	c3.3-0.7,3.5-0.4,6.1-0.7c2.2-0.3,3.3-1.4,4.4-1.9c1.4-0.8,3-1.1,4.6-1.1c1.1,0,2.2-0.3,3.2-0.7c2.8-1.3,1.8-1.2,5.8-2
	c2-0.4,3.5-2,4.7-2.7c0.8-0.5,1.6-0.8,2.4-1.1c1.2-0.4,2.6-0.5,3.8-1C75.8,58.7,77,58,78,57c0.6-0.5,1.3-1,2.1-1.3
	c0.9-0.5,1.9-0.9,2.9-1.2c1.2-0.4,3.1-2.4,4.7-4.1c2-2,3.8-1.7,6-2.9c1.3-0.7,2.2-1.2,1.6-2.5C95,44.3,94.5,43.8,93.9,43.4z
	 M70.2,57.6c-1.1,0.7-2.3,1.4-3.5,1.9c-2,0.9-4.1,1.4-6.3,1.7c-2.7,0.3-5.4,0.3-8,0.1c-2.6-0.3-5.2-1-7.7-2.1
	c-1.4-0.6-2.8-1.5-3.8-2.7c-1.1-1.1-1.9-2.4-2.3-3.9c-0.8-2.7-0.4-5.6,1.1-8c0.9-1.5,2.2-2.8,3.7-3.8l-0.6-0.6l-7,4v1h1.9v4.1
	l-1.3,1.2H23.6v-3.3c0.5-0.6,1-1.3,1.5-1.9h0.6V32.3h-2v-2.4l1.6-1.9h12.1V31l-1.9,1.9V38l11.5-6.6v-2.1l1.3-1.3h12.3v3l-1.5,1.4
	h-3.1l-5.1,3l0.8,1c5.5-1.8,10.8-2.2,17.9,1l2-1.2h3.3v8.9l-1.6,1.5h-3.1c-2.3-3.8-6.3-7.4-14.3-5.6l4.2,4.5h0.9v3.7l-1.5,1.5h-12
	l-0.1-3.4l0.9-0.9L48,45.7c-1.8,1.3-2.9,4.2,1.2,7.5c5.7,4.1,20,1.7,21.5-3.6h4.7C75.4,53.1,72.8,55.8,70.2,57.6z"/>
  <path d="M49.2,53.2c-4.2-3.3-3-6.2-1.2-7.5l0.5,0.6l-0.9,0.9l0.1,3.4h12l1.5-1.5v-3.6h-0.9L56.2,41c8-1.7,12,1.8,14.3,5.6h3.1
	l1.6-1.5v-9h-3.3l-2,1.2c-7.1-3.2-12.4-2.8-17.9-1l-0.9-0.9l5.1-3h3.1l1.5-1.4v-3H48.5l-1.3,1.2v2.1L35.7,38v-5.1l1.9-1.9v-3.1H25.5
	l-1.6,1.9v2.4h2v13.1h-0.6c-0.5,0.6-1.1,1.2-1.5,1.9v3.4h12.7l1.3-1.2v-4.1h-1.9v-1l7-4l0.6,0.6c-1.5,1-2.8,2.2-3.7,3.8
	c-1.4,2.4-1.8,5.3-1.1,8c0.4,1.5,1.2,2.8,2.3,3.9c1.1,1.1,2.4,2,3.8,2.7c2.4,1.1,5,1.8,7.7,2.1c2.7,0.2,5.4,0.2,8-0.1
	c2.2-0.3,4.3-0.9,6.3-1.8c1.2-0.5,2.4-1.1,3.5-1.9c2.5-1.8,5.2-4.6,5.2-8h-4.7C69.3,54.9,55,57.3,49.2,53.2z M70.1,38.1l1.9-1.2h2.6
	v7.9h-2.9c-3-4.5-9.8-6.1-16.1-4.5L52.6,37C54.8,36.3,61.2,34.2,70.1,38.1z M35,43.8v2.7h1.8v2.3h-11v-2.3h1.9V30.7h-1.9v-2h11v2
	h-1.9v8.6l15-8.6h-1.2v-2H60v2h-2.5l-7.7,4.5l10.4,11.2h0.4v2.3H49.1v-2.3h1.6l-7.1-7.6L35,43.8z M74.6,50.4
	c-0.4,2.3-1.5,3.3-2.8,4.8c-1.1,1.2-2.4,2.1-3.9,2.8c-3,1.5-6.4,2.3-9.8,2.2c-4.2,0.2-8.3-0.5-12.2-2c-2.4-0.9-4.4-2.6-5.7-4.8
	c-0.9-2.1-1-4.5-0.2-6.7c0.7-2.1,2.2-3.9,4.1-5.1l3.3,3.6c-1.7,1.5-2.9,4.1-0.3,7.1c3.1,3.9,10.3,5,17.7,2.8
	c3.8-1.1,5.5-2.7,6.7-4.7L74.6,50.4L74.6,50.4z"/>
  <path class="st1" d="M50.7 46.4L49.1 46.4 49.1 48.7 60.5 48.7 60.5 46.5 60.2 46.4 49.8 35.2 57.5 30.7 60 30.7 60 28.7 48.7 28.7 48.7 30.7 50 30.7 34.9 39.3 34.9 30.7 36.8 30.7 36.8 28.7 25.8 28.7 25.8 30.7 27.6 30.7 27.6 46.4 25.8 46.4 25.8 48.7 36.8 48.7 36.8 46.4 35 46.4 35 43.8 43.6 38.9z"/>
  <path class="st1" d="M64.9 55.1c-7.4 2.2-14.6 1.1-17.7-2.8-2.6-3-1.4-5.7.3-7.1l-3.3-3.6c-1.9 1.2-3.4 3-4.1 5.1-.8 2.2-.7 4.5.2 6.7 1.3 2.2 3.3 3.9 5.7 4.8 3.9 1.5 8.1 2.2 12.2 2 3.4 0 6.7-.8 9.8-2.2 1.4-.7 2.8-1.6 3.9-2.8 1.3-1.5 2.4-2.5 2.8-4.8h-3C70.4 52.4 68.7 54 64.9 55.1zM71.7 44.8h2.9v-7.9H72l-1.9 1.2c-8.9-3.9-15.2-1.8-17.5-1.1l2.9 3.2C61.9 38.8 68.7 40.3 71.7 44.8z"/>
</svg>
