<svg id="Logos" xmlns="http://www.w3.org/2000/svg" viewBox="0 0 360 100"><defs><style>.cls-1{fill:#fff;}.cls-2{fill:#b3995d;}.cls-3{fill:#a00;}</style></defs><title>San_Francisco_49ers copy</title><path class="cls-1" d="M155.41,34.57a5.94,5.94,0,0,1-2.32,5,10,10,0,0,1-6.31,1.8,15.82,15.82,0,0,1-6.64-1.11V37.52a17.16,17.16,0,0,0,3.25,1,17.45,17.45,0,0,0,3.49.36,7,7,0,0,0,4.25-1.07,3.51,3.51,0,0,0,1.43-3,3.77,3.77,0,0,0-.51-2.06,4.66,4.66,0,0,0-1.69-1.49,23.76,23.76,0,0,0-3.61-1.54,11.52,11.52,0,0,1-4.84-2.88,6.32,6.32,0,0,1-1.46-4.33,5.39,5.39,0,0,1,2.11-4.46,8.76,8.76,0,0,1,5.58-1.66,16.57,16.57,0,0,1,6.66,1.32l-.88,2.46a15.09,15.09,0,0,0-5.85-1.26,5.66,5.66,0,0,0-3.5,1,3.18,3.18,0,0,0-1.26,2.67,4.07,4.07,0,0,0,.46,2.07,4.42,4.42,0,0,0,1.57,1.48,20.33,20.33,0,0,0,3.38,1.49A13.3,13.3,0,0,1,154,30.52,5.77,5.77,0,0,1,155.41,34.57Z"/><path class="cls-1" d="M171.29,41l-.54-2.59h-.14a7.62,7.62,0,0,1-2.71,2.31,8.17,8.17,0,0,1-3.38.61,6.06,6.06,0,0,1-4.24-1.4,5.06,5.06,0,0,1-1.54-4q0-5.52,8.82-5.78l3.09-.1V29a4.57,4.57,0,0,0-.93-3.16,3.77,3.77,0,0,0-2.94-1,12,12,0,0,0-5.15,1.39l-.85-2.11a13.44,13.44,0,0,1,6.16-1.56A6.92,6.92,0,0,1,171.77,24c1,1,1.57,2.5,1.57,4.63V41Zm-6.22-2a5.6,5.6,0,0,0,4-1.41,5.22,5.22,0,0,0,1.47-4V32.08l-2.76.11a10.11,10.11,0,0,0-4.74,1A3.09,3.09,0,0,0,161.63,36a2.82,2.82,0,0,0,.91,2.27A3.74,3.74,0,0,0,165.07,39.08Z"/><path class="cls-1" d="M191,41V29.26a4.81,4.81,0,0,0-1-3.33,4.13,4.13,0,0,0-3.17-1.09,5.24,5.24,0,0,0-4.19,1.54q-1.32,1.55-1.32,5.1V41h-2.76V22.83h2.24l.45,2.49h.13a5.62,5.62,0,0,1,2.38-2.08,7.57,7.57,0,0,1,3.4-.74,7,7,0,0,1,5,1.58c1.1,1.06,1.66,2.75,1.66,5.08V41Z"/><path class="cls-1" d="M211.5,41h-2.82V16.75h13.53v2.51H211.5v8.88h10.06v2.51H211.5Z"/><path class="cls-1" d="M233.72,22.5a10.37,10.37,0,0,1,2.18.2l-.39,2.55a9.65,9.65,0,0,0-2-.24,4.81,4.81,0,0,0-3.77,1.79,6.5,6.5,0,0,0-1.57,4.46V41h-2.76V22.83h2.28L228,26.2h.13a8.09,8.09,0,0,1,2.44-2.74A5.53,5.53,0,0,1,233.72,22.5Z"/><path class="cls-1" d="M250,41l-.55-2.59h-.13a7.64,7.64,0,0,1-2.72,2.31,8.17,8.17,0,0,1-3.38.61A6.09,6.09,0,0,1,239,40a5.09,5.09,0,0,1-1.53-4q0-5.52,8.81-5.78l3.09-.1V29a4.62,4.62,0,0,0-.92-3.16,3.81,3.81,0,0,0-2.95-1,12,12,0,0,0-5.15,1.39l-.84-2.11A12.48,12.48,0,0,1,242.45,23a12.65,12.65,0,0,1,3.22-.42A6.89,6.89,0,0,1,250.49,24q1.57,1.44,1.57,4.63V41Zm-6.23-2a5.58,5.58,0,0,0,4-1.41,5.22,5.22,0,0,0,1.47-4V32.08l-2.75.11a10.11,10.11,0,0,0-4.74,1A3.1,3.1,0,0,0,240.35,36a2.85,2.85,0,0,0,.91,2.27A3.75,3.75,0,0,0,243.79,39.08Z"/><path class="cls-1" d="M269.74,41V29.26a4.76,4.76,0,0,0-1-3.33,4.11,4.11,0,0,0-3.17-1.09,5.22,5.22,0,0,0-4.18,1.54Q260,27.93,260,31.48V41h-2.76V22.83h2.25l.44,2.49h.14a5.53,5.53,0,0,1,2.37-2.08,7.6,7.6,0,0,1,3.4-.74,6.94,6.94,0,0,1,4.95,1.58q1.67,1.59,1.66,5.08V41Z"/><path class="cls-1" d="M285.06,41.36a7.76,7.76,0,0,1-6.12-2.43c-1.45-1.63-2.17-3.92-2.17-6.89s.74-5.39,2.2-7a7.93,7.93,0,0,1,6.27-2.49,12.28,12.28,0,0,1,2.62.28,8.92,8.92,0,0,1,2.06.66l-.85,2.35a11.92,11.92,0,0,0-2-.61,8.88,8.88,0,0,0-1.91-.24q-5.54,0-5.54,7.07A8.45,8.45,0,0,0,281,37.16,4.72,4.72,0,0,0,285,39a12.35,12.35,0,0,0,4.67-1v2.44A10,10,0,0,1,285.06,41.36Z"/><path class="cls-1" d="M293.36,17.9a1.85,1.85,0,0,1,.46-1.39,1.65,1.65,0,0,1,1.17-.44,1.61,1.61,0,0,1,1.14.45,1.81,1.81,0,0,1,.48,1.38,1.85,1.85,0,0,1-.48,1.39,1.71,1.71,0,0,1-2.31,0A1.88,1.88,0,0,1,293.36,17.9Zm3,23.13h-2.76V22.83h2.76Z"/><path class="cls-1" d="M313.35,36.06A4.56,4.56,0,0,1,311.46,40a8.87,8.87,0,0,1-5.31,1.38,11.51,11.51,0,0,1-5.65-1.15V37.66a13.74,13.74,0,0,0,2.82,1,11.49,11.49,0,0,0,2.89.38,6.61,6.61,0,0,0,3.33-.69,2.37,2.37,0,0,0,.24-3.91,14.58,14.58,0,0,0-3.6-1.79A19.45,19.45,0,0,1,302.57,31a4.94,4.94,0,0,1-1.59-1.6,4.17,4.17,0,0,1-.53-2.14,4.11,4.11,0,0,1,1.81-3.52,8.52,8.52,0,0,1,5-1.28A14.61,14.61,0,0,1,313,23.69l-1,2.24a13.18,13.18,0,0,0-5-1.12,5.74,5.74,0,0,0-3,.61,1.9,1.9,0,0,0-1,1.69,2.06,2.06,0,0,0,.37,1.25,3.76,3.76,0,0,0,1.2,1,26.67,26.67,0,0,0,3.19,1.34,12,12,0,0,1,4.38,2.38A4.2,4.2,0,0,1,313.35,36.06Z"/><path class="cls-1" d="M324.89,41.36a7.76,7.76,0,0,1-6.12-2.43C317.32,37.3,316.6,35,316.6,32s.74-5.39,2.2-7a7.93,7.93,0,0,1,6.27-2.49,12.28,12.28,0,0,1,2.62.28,8.92,8.92,0,0,1,2.06.66l-.85,2.35a11.92,11.92,0,0,0-2-.61,8.88,8.88,0,0,0-1.91-.24q-5.53,0-5.54,7.07a8.45,8.45,0,0,0,1.35,5.15,4.72,4.72,0,0,0,4,1.79,12.35,12.35,0,0,0,4.67-1v2.44A10,10,0,0,1,324.89,41.36Z"/><path class="cls-1" d="M348.79,31.91a10.06,10.06,0,0,1-2.24,7,7.92,7.92,0,0,1-6.19,2.5A8.16,8.16,0,0,1,336,40.21a7.59,7.59,0,0,1-2.92-3.28,11.42,11.42,0,0,1-1-5A10,10,0,0,1,334.3,25a7.87,7.87,0,0,1,6.17-2.48A7.71,7.71,0,0,1,346.54,25,10,10,0,0,1,348.79,31.91Zm-13.86,0a8.6,8.6,0,0,0,1.39,5.31,5.53,5.53,0,0,0,8.21,0,8.55,8.55,0,0,0,1.4-5.32,8.43,8.43,0,0,0-1.4-5.27,4.93,4.93,0,0,0-4.14-1.8,4.86,4.86,0,0,0-4.09,1.78A8.57,8.57,0,0,0,334.93,31.91Z"/><path class="cls-1" d="M157.14,74.27h-3.6v5.57H150.9V74.27H139.09V71.86l11.52-16.42h2.93V71.76h3.6Zm-6.24-2.51V63.69c0-1.58,0-3.37.16-5.36h-.13A26.24,26.24,0,0,1,149.44,61l-7.59,10.79Z"/><path class="cls-1" d="M174.43,65.93q0,14.25-11,14.25a11.2,11.2,0,0,1-3-.34V77.47a9.66,9.66,0,0,0,3,.43,7.38,7.38,0,0,0,6-2.46q2-2.47,2.21-7.57h-.2A5.87,5.87,0,0,1,169,70a7.68,7.68,0,0,1-3.4.73,6.87,6.87,0,0,1-5.12-1.93,7.35,7.35,0,0,1-1.89-5.38,8.23,8.23,0,0,1,2.12-6,7.35,7.35,0,0,1,5.57-2.2,7.48,7.48,0,0,1,4.32,1.27,8,8,0,0,1,2.85,3.71A15.13,15.13,0,0,1,174.43,65.93Zm-8.16-8.35a4.53,4.53,0,0,0-3.67,1.53,6.33,6.33,0,0,0-1.3,4.25,5.51,5.51,0,0,0,1.2,3.76,4.57,4.57,0,0,0,3.63,1.37,6.27,6.27,0,0,0,2.78-.62,5,5,0,0,0,2-1.67,3.93,3.93,0,0,0,.73-2.23,7.54,7.54,0,0,0-.69-3.22,5.53,5.53,0,0,0-1.9-2.32A4.72,4.72,0,0,0,166.27,57.58Z"/><path class="cls-1" d="M186.57,80.18a8.37,8.37,0,0,1-6.37-2.46,9.53,9.53,0,0,1-2.33-6.82,10.5,10.5,0,0,1,2.17-7,7.18,7.18,0,0,1,5.82-2.59,6.86,6.86,0,0,1,5.41,2.25,8.59,8.59,0,0,1,2,5.93v1.74H180.73a7.22,7.22,0,0,0,1.61,4.87,5.61,5.61,0,0,0,4.33,1.66,14.65,14.65,0,0,0,5.81-1.23V79a14.71,14.71,0,0,1-2.76.9A15.72,15.72,0,0,1,186.57,80.18Zm-.75-16.56a4.5,4.5,0,0,0-3.49,1.43,6.61,6.61,0,0,0-1.54,4h9.51a6,6,0,0,0-1.16-4A4.1,4.1,0,0,0,185.82,63.62Z"/><path class="cls-1" d="M205.7,61.32a10.21,10.21,0,0,1,2.17.2l-.38,2.55a9.81,9.81,0,0,0-2-.25,4.86,4.86,0,0,0-3.78,1.8,6.55,6.55,0,0,0-1.57,4.46v9.76H197.4V61.65h2.27L200,65h.13a7.9,7.9,0,0,1,2.44-2.74A5.51,5.51,0,0,1,205.7,61.32Z"/><path class="cls-1" d="M223.07,74.88a4.57,4.57,0,0,1-1.89,3.92,8.87,8.87,0,0,1-5.31,1.38A11.65,11.65,0,0,1,210.22,79V76.47a13.2,13.2,0,0,0,2.82,1,12,12,0,0,0,2.9.38,6.6,6.6,0,0,0,3.32-.69,2.38,2.38,0,0,0,.24-3.92,15,15,0,0,0-3.6-1.78,19.45,19.45,0,0,1-3.61-1.65,5,5,0,0,1-1.59-1.6,4.2,4.2,0,0,1-.53-2.15A4.1,4.1,0,0,1,212,62.6a8.52,8.52,0,0,1,5-1.28,14.44,14.44,0,0,1,5.74,1.19l-1,2.24a13.21,13.21,0,0,0-5-1.13,5.73,5.73,0,0,0-3,.62,1.9,1.9,0,0,0-1,1.69,2.08,2.08,0,0,0,.37,1.25,3.7,3.7,0,0,0,1.21,1,27.29,27.29,0,0,0,3.18,1.34,12.12,12.12,0,0,1,4.38,2.37A4.18,4.18,0,0,1,223.07,74.88Z"/><path class="cls-1" d="M53.76,81.84C72,81.84,90,75.66,99.53,66.09c4.86-4.86,7.43-10.47,7.43-16.23s-2.54-11.28-7.33-16.07c-9.49-9.5-27.5-15.63-45.87-15.63-12.86,0-26,3-36,8.3C6.31,32.49,0,40.8,0,49.86c0,5.68,2.54,11.22,7.36,16s11.8,8.86,20.21,11.71A83,83,0,0,0,53.76,81.84Z"/><path d="M18.55,28C7.69,33.69,1.7,41.46,1.7,49.86c0,5.21,2.38,10.34,6.86,14.83S20,73.22,28.12,76a81,81,0,0,0,25.64,4.16c17.81,0,35.3-6,44.57-15.26,4.53-4.53,6.93-9.72,6.93-15S102.89,39.46,98.43,35C89.24,25.8,71.7,19.86,53.76,19.86,41.17,19.86,28.34,22.82,18.55,28Z"/><path class="cls-2" d="M53.73,77.12c15.72,0,30.61-5.13,38.87-13.39C96.76,59.57,99,54.81,99,50S96.76,40.4,92.6,36.23C84.34,28,69.45,22.85,53.73,22.85c-11.54,0-23,2.85-31.52,7.82C13.37,35.84,8.5,42.7,8.5,50c0,4.83,2.2,9.59,6.37,13.75C23.12,72,38,77.12,53.73,77.12Z"/><path class="cls-3" d="M53.82,76.15c23,0,41.71-11.93,41.71-26.31s-18.68-26-41.71-26S12.1,35.46,12.1,49.84,30.78,76.15,53.82,76.15Z"/><path d="M86.44,46.57h-.11v-1H69.78a8.93,8.93,0,0,0-3-4.94,11.12,11.12,0,0,0-6.18-3.53l-1-.21c-2.39-.5-4.28-.9-11.87-.86,0,0-1.46,0-2.88-.24a6.06,6.06,0,0,1-.94-.32c.11-.63,1.26-1.5,2.57-1.67a24.94,24.94,0,0,1,16.8,3.94l.21.14h5.56V29.42h-1v-1H60.48l-1.29,1C57,28.91,46.24,26.55,37,30.62c-3.91,1.61-6.33,4.65-6.15,7.75a5.44,5.44,0,0,0,2.12,4A8.54,8.54,0,0,0,37.31,45a32.45,32.45,0,0,0,7.34,1.24v3.88h1v.95h2.9c1.2,0,1.51.67,1.58.91-3.7-.24-9.33-1.29-13.47-5.13l-.16-.16h0L35.75,46l-.25-.27H31.33v12.1h1v.95h3.4c.5,0,2.08-.14,3.17-3.33a39.46,39.46,0,0,0,11.5,2.08v7.53c-.19,2.53-5.76,3.32-7.7,3.4l-.8,0v3.74h.95v1H67.26V69.62l-.62-.17-.33-.09v-.81l-.76-.07a13.21,13.21,0,0,1-3.26-.65c-1.54-.86-1.8-1.56-1.83-1.68v-4h7.17a4.05,4.05,0,0,1,2,.88,9.69,9.69,0,0,1,1.51,2.74l.18.59h.64c.09.22.13.36.13.36l.19.59h3.85V52.74h-1v-1H71.29l-.14.66c-1,4.84-6.6,4.77-11.57,4a28.78,28.78,0,0,0,2.93-1,13.39,13.39,0,0,0,5.91-4.18H79.16a3.59,3.59,0,0,1,1.92.56,7.72,7.72,0,0,1,1,4.11l0,.88h1V57l0,.88h4.28V46.57Z"/><path class="cls-1" d="M69.31,49.55h8.9c5.09.16,4.72,6.51,4.72,6.51h2.56V46.45H70.13A6.36,6.36,0,0,1,69.31,49.55Z"/><path class="cls-1" d="M51.19,57.75v7.38c-.27,3.86-8.5,4.18-8.5,4.18v2.11H65.47V69.31c-6.77-.58-6.8-4-6.8-4V60.35h8.1c3.7.53,5.12,5.17,5.12,5.17h2.4V52.62H72c-1.61,7.77-13.51,4.28-14.39,4.47A27.36,27.36,0,0,1,51.19,57.75Z"/><path class="cls-1" d="M58.3,45.06c3.09.91,3.38,3.27,1.57,5.48A9.91,9.91,0,0,1,54,52.82s-11.92,1.29-18.87-6.24h-3V57h2.6s1.59.24,2.6-3.58c0,0,12.24,5,23.88.36,11.27-4.48,7-14.29-.77-15.83-3-.59-4.17-1.1-12.73-1,0,0-1.55-.05-3.06-.26-4.71-1.18-2-4.23.74-4.59A25.5,25.5,0,0,1,62.8,36.14h4.47V29.31H60.76l-1.38,1.06s-12.07-3.37-22.09,1c-6.73,2.79-8,9.75-.7,11.87,6.48,1.87,10.61,1.09,17.17,1.34A20.59,20.59,0,0,1,58.3,45.06Z"/><path class="cls-1" d="M48.57,49.3H45.48V46.53c2.4,0,7.29,0,10.74,0s4,2,2.48,3.37-4.28,2.19-7.7,1.57A2.49,2.49,0,0,0,48.57,49.3Z"/></svg>