<svg id="Layer_1" xmlns="http://www.w3.org/2000/svg" viewBox="0 0 200 200">
  <style>
    .st0{fill:#fff}
  </style>
  <path class="st0" d="M100.5,158.9c34.1,0,67.7-11.6,85.6-29.5c9.1-9.1,13.9-19.6,13.9-30.4c0-10.7-4.7-21.1-13.7-30
		c-17.8-17.8-51.4-29.2-85.8-29.2c-24,0-48.6,5.7-67.3,15.5C11.8,66.6,0,82.1,0,99.1c0,10.6,4.8,21,13.8,30c9,9,22.1,16.6,37.8,21.9
		C66.9,156.1,83.9,158.9,100.5,158.9z"/>
  <path d="M34.7,58.1C14.4,68.8,3.2,83.4,3.2,99.1c0,9.8,4.4,19.3,12.8,27.7c8.6,8.6,21.3,15.9,36.6,21.1c15,5.1,31.6,7.8,48,7.8
		c33.3,0,66-11.2,83.3-28.5c8.5-8.5,13-18.2,13-28.1c0-9.8-4.4-19.4-12.8-27.8c-17.2-17.2-50-28.3-83.5-28.3
		C77,43,53,48.5,34.7,58.1z"/>
  <path d="M100.5,150c29.4,0,57.2-9.6,72.7-25c7.8-7.8,11.9-16.7,11.9-25.7c0-9-4.1-17.9-11.9-25.7
		c-15.4-15.4-43.3-25-72.7-25c-21.6,0-43.1,5.3-58.9,14.6C25,72.9,15.9,85.7,15.9,99.3c0,9,4.1,17.9,11.9,25.7
		C43.2,140.5,71.1,150,100.5,150z" fill="#b2985d"/>
  <path d="M100.6,148.2c43.1,0,78-22.3,78-49.2c0-26.9-34.9-48.7-78-48.7c-43.1,0-78,21.8-78,48.7
		C22.6,125.9,57.5,148.2,100.6,148.2z" fill="#a91e22"/>
  <path d="M161.6,92.9h-0.2v-1.8h-1.6h-29.4c-0.7-3.5-2.7-6.7-5.5-9.2c-2.8-3.2-6.9-5.7-11.6-6.6l-1.9-0.4c-4.5-0.9-8-1.7-22.2-1.6
		c0,0-2.7-0.1-5.4-0.4c-0.7-0.2-1.3-0.4-1.8-0.6c0.2-1.2,2.4-2.8,4.8-3.1c0.3,0,15.6-2.9,31.4,7.4l0.4,0.3h10.4V60.9h-1.8v-1.8
		h-14.3c0,0-1.7,1.3-2.4,1.8c-4.1-1-24.2-5.4-41.6,2.2c-7.3,3-11.8,8.7-11.5,14.5c0.2,2.9,1.6,5.5,4,7.4c1.8,2.2,4.6,3.9,8.2,5
		c5.1,1.5,9.5,2.1,13.7,2.3v0.5v6.7h1.8v1.8h5.4c2.2,0,2.8,1.2,3,1.7c-6.9-0.5-17.4-2.4-25.2-9.6l-0.3-0.3h-0.1
		c-0.4-0.4-0.8-0.8-1.3-1.3l-0.5-0.5h-7.8V114h1.8v1.8h6.4c0.9,0.1,3.9-0.3,5.9-6.2c3.3,1.2,11.5,3.6,21.5,3.9c0,3.6,0,13.9,0,14.1
		c-0.3,4.7-10.8,6.2-14.4,6.4l-1.5,0.1v7H80v1.8h45.7V136l-1.2-0.3c-0.2-0.1-0.4-0.1-0.6-0.2V134l-1.4-0.1c-2.6-0.2-4.6-0.7-6.1-1.2
		c-2.9-1.6-3.4-2.9-3.4-3.1c0-0.1,0-5.4,0-7.5c2.5,0,13.1,0,13.4,0c1.4,0.2,2.6,0.8,3.7,1.6c1.9,2.4,2.8,5.1,2.8,5.1l0.3,1.1l1.2,0
		h0c0.2,0.4,0.2,0.7,0.2,0.7l0.3,1.1l1.2,0h6.1v-27.2h-1.6h-0.2v-1.8h-1.6h-5.6l-0.3,1.2c-1.9,9.1-12.3,8.9-21.6,7.6
		c1.8-0.5,3.7-1.1,5.5-1.8c5-2,8.7-4.7,11.1-7.8H148c1.4,0,2.6,0.4,3.6,1.1c2.1,3.1,1.9,7.6,1.9,7.7l-0.1,1.6h1.7h0.2
		c0,0.1,0,0.1,0,0.1l-0.1,1.6l1.6,0h6.4V92.9H161.6z"/>
  <path class="st0" d="M129.6 98.5h16.6c9.5.3 8.8 12.2 8.8 12.2h4.8v-18h-28.7C131.1 92.7 131.1 96.7 129.6 98.5zM95.7 113.8v13.8c-.5 7.2-15.9 7.8-15.9 7.8v3.9h42.6v-3.9c-12.7-1.1-12.7-7.6-12.7-7.6v-9.2h15.1c6.9 1 9.6 9.7 9.6 9.7h4.5v-24.1h-4.3c-3 14.5-25.3 8-26.9 8.4C107.7 112.6 102.2 114 95.7 113.8zM109 90.1c5.8 1.7 6.3 6.1 2.9 10.2-4.3 4.1-11 4.3-11 4.3S78.7 107 65.7 92.9h-5.6v19.5H65c0 0 3 .5 4.9-6.7 0 0 22.9 9.3 44.6.7 21.1-8.4 13.1-26.7-1.4-29.6-5.6-1.1-7.8-2.1-23.8-2 0 0-2.9-.1-5.7-.5-8.8-2.2-3.8-7.9 1.4-8.6 0 0 15.9-3.1 32.5 7.6h8.4V60.6h-12.2l-2.6 2c0 0-22.6-6.3-41.3 1.9-12.6 5.2-15.1 18.2-1.3 22.2 12.1 3.5 19.8 2 32.1 2.5C104 89.3 106.9 89.5 109 90.1z"/>
  <path class="st0" d="M90.8,98H85c0-0.9,0-0.1,0-5.2c4.5,0,13.6,0,20.1,0c6.5,0,7.4,3.8,4.6,6.3c-2.6,2.4-8,4.1-14.4,2.9
		C95.4,102.1,94.8,98,90.8,98z"/>
</svg>
