<svg xmlns="http://www.w3.org/2000/svg" viewBox="0 0 200 200">
  <path d="M179.5,97.7c-1.1-0.5-0.9-1.5-0.2-2.1c9-6.7,15-15.2,15-28.4c0-15.6-11.2-37.5-54.8-37.5H27L1.5,74.1h18.7
			c2.1,0,3.8,1.7,3.8,3.8v44.3c0,2.1-1.7,3.8-3.8,3.8H0.2l25.8,44.2l118.9,0c38.4,0,55-20,55-41.5
			C199.9,114.5,189.8,102.9,179.5,97.7z" fill="#fff"/>
  <path d="M165.6,98.7c-1.4-0.3-1.1-2-0.1-2.4c12.2-4.6,19.3-12.8,19.3-27.3c0.2-19.4-17-32.8-44.9-32.8H34L15.5,69.1
			h12.8c2.5,0,4.6,2,4.6,4.6v52.9c0,2.5-2,4.6-4.6,4.6H15.6l18.7,32.6l110.6,0c31.6,0,44.6-21,44.6-36.4
			C189.5,113.7,179.5,102,165.6,98.7z M112.8,131.1H97.7c-1.9,0-3.4-1.5-3.4-3.4V110h18.5c8.9,0,12.1,4.3,12.1,10.4
			C125,126.6,121.7,131.1,112.8,131.1z M112.8,90.2H94.4V72.4c0-1.9,1.5-3.4,3.4-3.4h15.1c8.9,0,12.1,4.5,12.1,10.4
			C125,85.7,121.7,90.2,112.8,90.2z" fill="#fb4f14"/>
  <path d="M124.9,36.3c-3.5,9.2-7.2,20.4-10.3,32.8c-0.6,0-1.1-0.1-1.8-0.1H97.7c-1.9,0-3.4,1.5-3.4,3.4v17.8h15.9
			c-1,6.4-1.9,13-2.5,19.8H94.4v17.8c0,1.9,1.5,3.4,3.4,3.4h9.3c0.1,10.6,1.1,21.6,3.1,32.6H96.3C85.4,137.5,70.4,93,85.3,36.3
			H124.9z M162.6,39.9c-22.5,33.3-34.6,75.7-29.2,114.4c6.7-32.5,24.1-62.6,51.3-84.3c0-0.3,0-0.6,0-1
			C184.9,55.6,176.8,45.1,162.6,39.9z M70,154.5C50.4,117.6,45.3,75.2,52.6,36.3H34L15.5,69.1h12.8c2.5,0,4.6,2,4.6,4.6v40.6
			C42.3,129.7,56.1,144.5,70,154.5z"/>
</svg>
