<svg id="Layer_1" xmlns="http://www.w3.org/2000/svg" viewBox="0 0 200 200">
  <style>
    .st2{fill:#00338d}
  </style>
  <path d="M21.1,128.8c13.9-8.9,18.3-18.9,18.3-18.9L0,115.5l16.7-29.7L50.3,83c0,0,13.1-11.7,33.3-20
			c0,0,2.1-3.7,13.7-10.3c0,0,10.6-6.2,22.7-10.2c0,0,8.2-2.8,10.6-3l-0.7-2.6l15.4-1.3l0.4-1.5c0,0,8.1,0.5,12.7,2.6l0.9-1.2
			c0,0,10.8,5,18.8,17.1c0,0,7.8-0.4,14.8,2.9c0,0,7.4,2.9,7.1,11.5c0,0-0.1,10.9-3.3,21.8c0,0-0.5,1.7-1,2.7c0,0-0.7,1.4-2,3.1
			c0,0-3.7,3.8-5.1,7.1c0,0-0.8,2.2-2.3,6.2c0,0-1.2,5.5-9.2,5.8c0,0-7.8,9.9-11,12.7l-0.3-2.4c0,0-5.4,5-10.2,8l1.6-14
			c0,0,0.4-2.5-1.2-2.7l-4.1-0.1c0,0,1.3,8.4-0.3,12.3c0,0-1,6.1-10.5,9c0,0-7.3,2.3-15.7,3l-1.8-0.3l-13.2,5.4l3.8-13.8
			c0,0-4.9,0.5-5.4-0.1L94.4,137l5.8-16.5l3.9-2.2l-1.3-1.7l-8.1,0.1l-3,2.3c-6.9-1.8-13.6-1.3-13.6-1.3l-34.1,27.7l-8.5,18.9
			l-10.2-13.6l3.2-4.2l-1.2-0.9l-4.6,3.6l-6.8,18.4L5.9,153.3l2.6-5.8L7.9,144c3-2,4.9-3.3,6.5-5c0.8-1.1,1.3-1.4,2.2-3.2
			c0.9-2.2,0.9-4.6,1.9-5.3C19.8,129.5,20.8,129,21.1,128.8z" fill="#fff"/>
  <path d="M18.6,88.8l-13,23l168.1-25.1c0,0-5.8-4.4,2.6-11.5L18.6,88.8z" fill="#c60c30"/>
  <path class="st2" d="M189.3,72c0,0-13.1,9-8.6,16.7c0,0-4.8,2.6,0.5,6.4c0,0-8.1,3.7-6-6.4l-132.2,20c0,0-2.8,12-21.6,23.3
				c0,0-1.4,0.8-1.5,2.3c0,0,0.1,1.9-1.6,4.1c0,0-2.1,3.7-7,6.8l0.3,2.5L9.5,153l5.6,8.1l5.1-13.7l10.1-7.7c0,0,9.8-15.4,26-21.4
				c0,0,14.3-6.1,35.1-2.6l1.9-1.8l24.1-0.5c0,0,0.9,0.2,0.3,0.7c0,0-4.8,3.7-10,4.1l0.5,1.5c0,0,0.1,0.5-0.2,0.6l-5.1,2l-3.3,9.3
				l9.5-4.1l0.5,0.4c0,0,8.3,0.5,20.7-2c0,0,8.6-1.7,11-12.9l16.4-0.7c0,0,3.4,0.7,3,3.9l-1.2,9.3l7.5-6.7l0.5,1.8
				c0,0,5.7-6.2,7.1-9.7c0,0,6.2,0.1,7.8-2.4c0,0,0.7-0.7,2.7-6.2c0,0,0.9-3.9,4.8-7.7c0,0,3-2.8,4.6-10.1c0,0,2-10.6,2-12.7
				c0,0,2.2-10.5-5.1-13.6c0,0-5.4-3-15.4-2.1c0,0-2-7-15.8-16.5l-1,1.5c0,0-4.7-3.3-11.4-3.2l-0.3,0.9c0,0-4.1,0-12.9,0.9l0.8,2.5
				c0,0-18.3,0.8-44.2,18.2l-0.5,1.4l-3.3,1.6l1.8,1c0,0-19.8,7.2-34.2,19L189.3,72z"/>
  <path class="st2" d="M143 114.9l5.7-.1c0 0 1.1 7.5.5 10.8 0 0-1.1 5-6.2 6.9 0 0-7.5 3.2-18.7 3.9l-.5-.5-8.5 3.6 2.8-9.9c0 0 11.4-.9 14.8-1.9C132.8 127.8 141.6 126 143 114.9zM73.1 117.8c0 0-20.1-.2-33.9 16 0 0 0 5.9-7.2 9.9l.3 1.9-3.4 4.7 6 8.1 6.8-15L73.1 117.8z"/>
</svg>
