<svg id="Layer_1" xmlns="http://www.w3.org/2000/svg" viewBox="0 0 200 200">
  <style>
    .st0{fill:#fff}.st1{fill:#004c54}.st2{fill:#a5acaf}
  </style>
  <path class="st0" d="M116.5,39.5l-9.7,10.2c16-6.6,50.8-18,50.8-18l-11.2,10.9c30.4-9,53.6-13.3,53.6-13.3s-6.7,15.6-16.7,31.2
		c1.9-0.2,14.6-1.7,14.6-1.7s-11.4,18.9-24.5,32.5l7.4,1.8c0,0-11.5,16.5-26.6,30c-21.8,19.4-33,16.4-33,16.4
		c-16.2,11.7-29.1,5.8-29.1,5.8s5.6-14.1-0.2-15.6c-5.2-1.4-13.1,2.7-14.1,4.4c-1,3.6-5.4,12.6-9.8,18.1
		C59.2,162.7,49.7,167,49.7,167s-7.5-6.4-7.5-17.3c0,0-5.1,5.5-13.5,7.2c-5.9,1.2-13.9,0.2-22.1-6.6c-5.5-4.6-6.6-20-6.6-20
		s5.2-9.9,15.2-18.5c-2.2-1.9-3.6-4.3-4-5.8c26.5-11.6,26.5-22.6,47.6-36.1C79.6,56.7,92.6,50.6,116.5,39.5z"/>
  <path class="st1" d="M103.6,48.9l-8.3,8.7c16.5-7.3,51.2-19.1,51.2-19.1l-10.1,9.9c35.6-11,58.2-14.8,58.2-14.8
		s-7.4,16.5-17.2,30.4c4.8-0.5,14.7-1.6,14.7-1.6s-9.9,16.6-24.6,30.7c1.6,0.2,8.3,1.8,8.3,1.8s-8.8,13.1-24.2,26.6
		c-19.6,17.2-28.3,15.2-28.3,15.2s0.2-0.7,0.2-1.7c0-0.6-0.1-1.1-0.1-1.1c-15.1,14.2-27.7,9.4-27.7,9.4s5.6-13.5-3-16.3
		c-6.6-2.1-16.8,3.3-17.6,6.2c-0.9,3.2-5.1,12-9.3,17.1c-7.3,8.9-15.3,13-15.3,13s-7.3-5.6-4.8-22.1c0.6-3.6-0.2-5-0.5-5.6
		c-1.2-1.8-10.5,0.2-12.8,5.4c-1.6,3.7,7.7,6.8,7.7,6.8s-4.3,4.7-11.8,6.3c-4.7,1-12,0.7-19.7-6C3.9,144.2,3,131,3,131
		s5.6-10.3,16.5-19.1c-2.2-1.4-3.8-3.8-4.2-4.7c22-9.5,25-22.8,49.8-37.8C76.6,62.4,88.8,55.5,103.6,48.9z"/>
  <path d="M161.9,95.1c0.9,0.2,4.5,0.8,6.5,1.7c-7.5,12.2-30.1,36.3-42.7,37.3c-0.1-2.1-1-3.9-1.9-5.1c-4.7,8.6-19.2,13.9-25.2,12.6
		c7.3-26.7-23.6-16.5-26-9.2c-6.1,19-21.8,28-21.8,28s-5-5.7-2.8-18.5c1.6-9.4-4.4-9.1-4.4-9.1c-2.4-0.1-11.4,1-14.3,7.3
		c-2.3,5.1,5.7,8.6,5.7,8.6s-11.6,9.3-25.1-2.2c-3.3-2.8-4.5-14.7-4.5-14.7c6.5-10.7,15-17.5,18.5-20.1c-3.7-1.4-4.9-3.4-4.9-3.4
		c18-8.3,25.1-22,40.5-32.2c16.9-11.3,29.9-16.8,29.9-16.8l-4.9,6.2c0,0,4.1-1.7,5.9-2.6c16.1-7.9,43.4-16.5,43.4-16.5l-8.5,8.2
		c0,0,14.1-4.8,31.9-8.6c9.5-2,29.3-6.2,29.3-6.2s-4.6,13.7-14.5,27.5c6-0.4,12.4-0.8,12.4-0.8S177.5,80.2,161.9,95.1z"/>
  <path d="M88.5 76.5c-.2.1-.4.1-.6.2C88.1 76.7 88.3 76.6 88.5 76.5 88.5 76.6 88.5 76.5 88.5 76.5zM87.9 76.8C87.9 76.8 87.9 76.8 87.9 76.8 87.9 76.8 87.9 76.8 87.9 76.8z"/>
  <path class="st0" d="M109.1,108.7c0,0-8.6-4.2-22.2,0.3c0,0,18.8-11.1,42.5-6.4c-15.4-5.2-29.3-2.7-37.5,0
		c-4.8,1.9-7.7,3.4-7.7,3.4s1.2-0.9,3.5-2.2c5.6-4.1,13.2-8.5,20.8-11.6c5.2-2.2,15.7-5,19.9-5.2c0,0-10.9-1.9-20.9,0.7
		c0,0,15.8-6.2,31.1-6.5c5.1-0.1,16.9,0.5,16.9,0.5c-16.9-5-34.5-6-46.5-4.2c-6.8,1.7-12.2,3.4-12.2,3.4s0.9-0.5,2.7-1.2
		c4.3-2.6,22.1-12.1,55-17.2c0,0-4.2-0.5-9.4-0.5c-5.3,0-15.6,1.8-15.6,1.8c7.5-3.4,21.7-6.8,39.1-8.4c0,0-26.7-3.2-59.1,7
		c-0.3,0.1-0.4,0.2-0.4,0.2s3.4-2.5,7.3-5c2.8-1.9,7-4.8,7-4.8s-16.6,4-39.1,14.6c-6.3,3-9.7,4.8-9.7,4.8c1-1.1,5.5-5.1,6.6-6.5
		C64.6,73.6,58.5,79,48.6,89.6c-8.8,9.4-8.4,11-21.9,18.3c0,0,9.9,4.1,19.9-2.5c1.7-1.1,3.4-2.7,4.9-4.4c3.5-4.1,2.4-8.3,7.1-11.4
		c-0.7,1.6-1.8,3.5-1.9,5.6c2.3-3.1,6.7-7.2,11.7-10.2c12.6-7.5,21-8.8,21-8.8c-0.3,0.1-0.6,0.2-1,0.3
		c-17.3,7.2-20.1,16.6-20.2,17.5c-0.2,2.1,6.2-2.6,11.5-3.3c-5.5,2-10.3,6.7-12.6,12.1c-1,2.3-1.3,4.9-4,7c-0.8,0.7-1.8,1.4-3.1,2
		c-3.6,1.6-6.1,0.8-7,0.2c-0.5-0.3-0.8-0.9-0.8-0.9c1.8,0.5,4.1,0.1,6.3-1.3c1.6-1,2.8-2.4,3.5-3.7c0,0,0,0,0,0c0.4-0.7,1-2.1,0-4
		c-0.5-0.9-1.5-1.4-2.7-1.6c0.1-0.2,0.7-1.7,2.6-4c-2.6,1.9-4.2,4.1-5.1,5.1c1.2,0.1,2.3,0.7,2.9,1.7c1.2,1.9,0.1,4.7-2.4,6.2
		c-2.5,1.5-5.5,1.1-6.6-0.8c-0.1-0.2-0.3-0.5-0.3-0.8c-0.1,0.1-0.3,0.2-0.4,0.2c-0.8,0.4-2.4,1.1-2.4,1.1c0.7,0.2,1.7,0.3,2.4,0.1
		c0.2,2.7,1.9,7.1,11.6,4.6c-2.8,2.7-9.4,2.5-13.4,0.4c0.5,0.4,1.2,0.8,1.9,1.3c12.1,7.5,26,0.4,29.4-1.5c0.8-0.5,1.7-1,2.5-1.4
		c0,0-3.5,3.1-5.9,7.9C80.3,115.4,92.6,106.7,109.1,108.7z"/>
  <path class="st2" d="M64.9,96.8c0.5,1.8,3.6-0.1,3.6-0.1s-4.2,3.5-5.9,7.4c0,0.2,0,1-0.6,2.1c0.4,0.1,0.8,0.2,1.2,0.1
		c1.1-0.1,2.4-0.9,2.4-0.9s0,2.3-2.4,4.5c2.7-2,3-4.7,4-7c2.3-5.4,7-10.1,12.6-12.1c-5.3,0.6-11.7,5.4-11.5,3.3
		c0.1-1,2.9-10.4,20.2-17.5c-0.2,0.1-0.6,0.2-0.6,0.2C72,82.7,63.7,92.1,64.9,96.8z"/>
  <path class="st1" d="M58.3,104.1c0.8,1.4,0,3.4-1.8,4.5c-1.8,1.1-4,0.9-4.8-0.5c-0.1-0.2-0.2-0.4-0.3-0.7c-0.3,0.2-0.7,0.5-1.1,0.7
		c0.1,0.3,0.2,0.5,0.3,0.8c1.2,1.9,4.1,2.3,6.6,0.8c2.5-1.5,3.6-4.3,2.4-6.2c-0.6-1-1.6-1.5-2.9-1.7c-0.3,0.3-0.6,0.7-0.9,1.2
		C57,102.9,57.9,103.3,58.3,104.1z"/>
  <path d="M56.5,108.5c1.8-1.1,2.6-3.1,1.8-4.5c-0.5-0.8-1.4-1.2-2.4-1.2c-0.7,0.9-1.5,1.8-2.5,2.8c0,0.8,0.1,1.8,1.1,2.5
		c0,0-1.1,0.1-1.8-0.4c-0.4-0.3-0.6-0.6-0.6-0.8c-0.2,0.2-0.4,0.3-0.7,0.5c0.1,0.2,0.1,0.5,0.3,0.7
		C52.5,109.4,54.7,109.6,56.5,108.5z"/>
  <path class="st0" d="M52.8,107.7c0.7,0.5,1.8,0.4,1.8,0.4c-1-0.7-1.1-1.7-1.1-2.5c-0.4,0.4-0.9,0.8-1.4,1.2
		C52.2,107.1,52.4,107.4,52.8,107.7z"/>
  <path class="st2" d="M155.5,81.6c0,0-11.7-0.6-16.9-0.5c-15.3,0.3-31.1,6.5-31.1,6.5c10-2.5,20.9-0.7,20.9-0.7
		c-4.2,0.2-14.7,3-19.9,5.2c-7.6,3.1-15.2,7.5-20.8,11.6c8.9-5.3,34.2-17.7,66.4-10.8c0,0,2.1-1.6,7.7-7.8
		c5.9-6.5,7.2-10.5,7.2-10.5s-27.3-2.9-47.1,0.1c-4.3,0.7-8.8,1.7-12.9,2.7C121,75.6,138.6,76.6,155.5,81.6z"/>
  <path class="st2" d="M92.5 114c22.3-5.5 37.8 1.2 39.7 8.2 0 0 .1 0 .2-.1.9-.5 4.4-2 9.6-7.1 5.5-5.4 8.9-9.7 10.3-12.6-22.8-11.4-48-4.6-60.3.2 8.2-2.8 22.1-5.2 37.5 0-23.8-4.7-42.5 6.4-42.5 6.4 13.6-4.4 22.2-.3 22.2-.3-16.5-2-28.8 6.7-33 12.1-.3.7-.6 1.4-.9 2.1C79 119.3 83.1 116.4 92.5 114zM168.7 55.2c-17.5 1.7-31.6 5-39.1 8.4 0 0 10.4-1.8 15.6-1.8 5.2 0 9.4.5 9.4.5-33 5.1-50.7 14.7-55 17.2 4.4-1.9 13.9-5.4 27.4-8.1 12.8-2.5 27.7-3.2 33.7-3.8 8.5-8.3 11.9-18.7 11.9-18.7s-14.9 1.2-31.8 4.3c-17.6 3.3-28.9 7.8-31.2 8.8C142 52 168.7 55.2 168.7 55.2z"/>
  <path class="st2" d="M79.9 123c0 0 5.6-4.2 15.2-2.7 14.1 2.3 13.7 11.2 13.7 11.2s6.4-2.7 9.6-8.3c0 0-4-3.8-11.2-5.1C88.4 114.7 79.9 123 79.9 123zM41.4 112.7c-3.6 1.1-8.2.8-10.8.1-2.9 2-13.5 6.5-20.2 17.9.3 3.8.7 8.8 2.3 11.5 6.4 10.2 17.7 6.4 17.7 6.4s-17.1-7.6 1.2-18.6c5.8-3.5 22-6.2 31.6-3.1.8.3 1.8 1 1.8 1.2-1 4.9-5 18.6-11.7 22.5-3.7-5.4 6.1-17.8-3.9-18.3 0 0 2.5 3.8 1.4 9-.5 2.3-2 8.3.7 14.6 0 0 15.2-9.1 19.7-30 .6-2.1 1-3.8 1.9-5.4C53.6 128.2 41.4 112.7 41.4 112.7zM35.5 119.4c-1.4.4-4.4.8-3-1.3 0 0 1.8-1 4.2-2.2 1 .9 2.1 1.5 5 1.7C41.7 117.6 36.6 119.1 35.5 119.4z"/>
  <path d="M32.5,118.1c-1.4,2.1,1.6,1.7,3,1.3c1.1-0.3,6.2-1.8,6.2-1.8c-2.8-0.3-3.9-0.9-5-1.7C34.3,117.1,32.5,118.1,32.5,118.1z"/>
</svg>
