<svg id="Layer_1" xmlns="http://www.w3.org/2000/svg" viewBox="0 0 200 200">
  <style>
    .st0{fill:#fff}.st1{fill:#9a7611}.st2{fill:#24135f}
  </style>
  <path class="st0" d="M199.6,109.4c-0.8-4.9-4.1-12.2-14.9-18.7c-0.7-0.4-1.5-0.9-2.3-1.3c2-0.7,4.1-1.4,4.1-1.4l-12.1-4.7
		c-1-0.4-2.1-0.8-3.2-1.1c0.8-0.8,1.6-1.7,1.6-1.7l-9.2-1.3c-4-0.6-7.2-0.7-9.6-0.7c0-0.4-0.1-0.7-0.1-1.1c0,0-1.5-11.6-1.5-11.6
		s-3.6,4.9-3.9,5.4c-0.8-1.3-1.6-2.5-2.6-3.6c0,0-10-11.3-10-11.3s0.4,3.3,0.7,6c-3.2-2.3-6.8-4.3-10.7-6
		c-16.1-6.9-36.4-8.3-55.7-3.9c-16.2,3.7-39.5,13.2-58.9,38L0,104.8l16.9-6.7C17,98,30,92.9,40.5,91.5c3.9-0.6,6.9-0.6,4.5,4.8
		c-1.9,4.2-6.3,10.4-6.3,10.5L30.2,119l14.1-4.9c6.8-2.4,12.9-3.5,15.9-3.6c1.1,0,1.3,0.7,1,1.5c-0.1,0.3-0.2,0.4-0.9,1.6l-8.8,12.6
		l14.5-5.2c10.5-3.8,24.3-6.3,29.3-4.4c0.4,0.2,1.7,0.8,0.4,2.7l-5.7,9c0,0,8.4-1.3,9.6-1.5c0.7,8.3,4.8,12.8,5.3,13.3l6.1,6.3
		l2.1-8.5c1.5-6.1,4.4-9.4,7-11.2c0,0,0.5,3.5,0.5,3.5l5.7-2c4.8-1.7,8.5-3.8,11.2-6.1c3.6-0.3,12.3-0.8,20.8,0
		c14.5,1.4,24.2-0.5,26.9-1.1c3.5-0.8,6.5,0.7,6.5,0.7l4.3,2.3l2.3-4.4c0.3-0.5,1.6-3.2,1.6-7.3
		C199.8,111.4,199.7,110.4,199.6,109.4z"/>
  <path class="st1" d="M197.5,110.2c-0.7-4.4-3.7-10.8-13.7-16.8c-2.7-1.6-5.6-3-8.5-4.1l3.5-1.2l-4.9-1.9
							c-2.4-0.9-4.9-1.7-7.6-2.3c0.5-0.5,1-1.1,1-1.1l-3.7-0.5c-5.7-0.8-9.7-0.7-12.1-0.5c0-0.5,0-1,0-1.6c0-0.8,0-1.5-0.1-2.1
							l-0.6-4.7c0,0-2.3,3.1-2.6,3.5c-0.8-2.1-2-4.7-4.2-7.2l-4-4.6l0.5,3.8c-3.6-3.4-8.6-6.9-15.5-9.9c-15.6-6.7-35.4-8.1-54.3-3.8
							C55,59,32.2,68.3,13.2,92.5l-4.8,6.1l7.2-2.9c0.1-0.1,13.5-5.4,24.4-6.8c4.3-0.6,7.2-0.1,8.3,1.4c1,1.4,0.7,4.2-0.9,7.4
							c-2.1,4.4-6.5,10.8-6.6,10.9l-3.6,5.2l6-2.1c7.9-2.8,17.9-4.8,20.3-3.3c0.5,0.4,0.8,0.8,0.9,1.3c0.4,1.9-1.3,4.8-1.9,5.7
							l-3.8,5.4l6.2-2.2c9.9-3.5,27.6-7.6,33.1-3.4c2.5,1.9,0.2,5.8,0.1,6l-2.4,3.9l4.5-0.7c0,0,1.1-0.2,2.2-0.3c0,0.4,0,0.7,0,1.1
							c0,8.7,4.4,13.4,4.6,13.6l2.6,2.7l0.9-3.6c2.6-10.2,8.6-13.7,12-14.9c0.1,0.7,0.6,4,0.6,4l2.4-0.9c5.9-2.1,9.2-4.5,11.1-6.3
							c2.7-0.2,12.7-1,22.3,0c14.1,1.4,23.5-0.5,26.1-1.1c4.7-1.1,8.5,0.9,8.5,0.9l1.9,1l1-1.9c0.1-0.1,1.3-2.5,1.3-6
							C197.7,112,197.7,111.1,197.5,110.2z"/>
  <path d="M182.6,95.5c-4.2-3-9.8-5.1-15.3-6.6c2.3-0.7,4.6-0.7,4.6-0.7c-3.5-1.3-7.2-2.2-10.6-2.7l1.3-1.1
							c-6.2-1.1-10.6-1-13.2-0.7c0.3-1.3,0.6-3.2,0.3-5.8c0,0-0.8,2.2-2.6,3.6c-0.2-2.9-1.2-7.1-4.3-10l0.6,5.1
							c-2.8-4.2-8.1-9.6-18.1-14.2C98.1,49.7,50.1,54.5,23.8,88.5c0,0,10.2-5.1,24.4-5.5c7.4-0.2,9.2,4,6.5,11
							c-2.7,7-7.5,13.2-7.5,13.2s32.1-11.4,22,4.4c0,0,24.2-7.3,31.5,1.3c3.4,4-0.6,9.5-0.6,9.5l6.9-1.5c-2.2,8.7,1.7,14.3,1.7,14.3
							c2.8-11.4,12.7-14.5,16.2-15l0.8,3.1c5.9-2.1,8.6-4.4,10.2-6.2c12.4-2,20.9-0.3,30.4,0.2c14,0.8,21.2-1.7,23.5-1.7
							c1.7,0,3.7,1.5,3.7,1.5S199.3,107.4,182.6,95.5z"/>
  <path class="st0" d="M171.2,114.1c6.9,0,12.2-0.7,16.2-1.6c-15.1-6.5-44.7-9.2-49.2-8.9c0,0-2.5,0.7,0.4,3.5
							c-4-1.6-8.1-4.6-8.3-6.1c-0.3-1.6,2.6-2.1,9.6-1.3c26.1,3.1,48.7,7.4,51.7,13.8c0,0,1.6-8-11.4-15.6
							c-11.1-7.4-28.2-8.6-28.2-8.6l4.3,3.5l-8-0.7l6.4,4.6c-6.8-2.2-25.2-8.3-40.5-4.4c0,0,16.7-0.2,24.4,4.4
							c-28.3-4.6-42.9,5.2-42.9,5.2c15.9-4.5,28.6-3.3,32.7-2.7c-6.7,1.6,1.2,6.5,6,9c0.5,1.3,1.9,4.1,0.6,6.4c0,0,1.4-1.8,2.5-4.6
							l3.9,3.1C152.9,111.7,161.5,114.1,171.2,114.1z"/>
  <path class="st2" d="M117.7,63.5c-30.9-9.2-63.1-0.3-81,16.8c0,0,18-5.7,23.4-0.1c6.3,6.5-3.2,21.7-3.2,21.7l6.2-1
										c-0.4,0.1-0.7,0.1-0.7,0.1c4.9-17,9.3-23,12.2-25.9c1.7-2.1,4.8-3.6,7.3-4.4c-16.6,0.8-32.8,4.2-32.8,4.2
										c10.5-8.1,34.7-13.8,48.7-12.4c14,1.4,13,7.1,11.6,10.3c-1.2,2.6-6.9,6.2-12.3,7.3c5.6,0.7,8.7,5,6.7,9.3
										c-0.2,0.4-0.4,0.7-0.6,1.1c-5.9,1.4-11.2,3.6-15.5,6.1c-0.2,0.1-0.3,0.2-0.5,0.3c-0.2,0.1-0.4,0.2-0.6,0.4
										c-0.2,0.1-0.3,0.2-0.5,0.3c-0.2,0.1-0.4,0.2-0.6,0.3c-0.2,0.1-0.3,0.2-0.5,0.3c-0.2,0.1-0.3,0.2-0.5,0.3
										c-0.1,0.1-0.3,0.2-0.4,0.3c-0.2,0.1-0.3,0.2-0.5,0.3c-3.6,2.4-6.1,4.9-7.5,6.8c0,0,36.4-7.4,30.1,11l9.4-2.6
										c-0.7,1.2-1.7,2.5-3.1,4.1c-4.4,4.9-4.1,9.6-4.1,9.6s1.3-5.1,9.7-8.7c7.7-3.2,9.4-8.6,9.4-8.6s2.6,3.8,0.5,9.1
										c0,0,3.5-0.9,6.7-5.2c1.3-2.3,0-5-0.6-6.4c-4.8-2.6-12.7-7.4-6-9c-4.2-0.6-16.8-1.9-32.7,2.7c0,0,14.7-9.8,42.9-5.2
										c-7.6-4.6-24.4-4.4-24.4-4.4c5.8-1.5,12.1-1.5,18-0.8c-2.4-0.7-5.6-1.4-9.4-2c-5.8-0.7-11.4-0.4-16.5,0.6
										c5.7-6,16.2-5.2,16.2-5.2c-7-4.7-16.1-3.2-16.1-3.2c10.2-5.3,21.6-3.5,21.6-3.5c-3.6-4.7-12-5.8-12-5.8
										c16.7-0.7,22.6,8.1,22.6,8.1c-4.2-1.8-7.1-1.5-7.1-1.5s4,0.7,6.7,5.7c2.9,5.4,5.3,5.2,5.3,5.2S148,72.5,117.7,63.5z"/>
  <path class="st0" d="M84.7,98.5c0.2-0.1,0.8-0.5,1-0.6c0.2-0.1,0.4-0.2,0.6-0.3c0.2-0.1,0.3-0.2,0.5-0.3
										c0.2-0.1,0.4-0.2,0.6-0.4c0.2-0.1,0.3-0.2,0.5-0.3c4.3-2.4,9.6-4.7,15.5-6.1c0.2-0.3,0.4-0.7,0.6-1.1
										c2-4.3-1.2-8.6-6.7-9.3c5.4-1.1,11.1-4.7,12.3-7.3c1.4-3.2,2.4-8.9-11.6-10.3c-14-1.4-38.3,4.2-48.7,12.4
										c0,0,16.2-3.4,32.8-4.2c-2.5,0.8-5.6,2.3-7.3,4.4C71.7,78,67.3,84,62.4,101c0,0,0.3,0,0.7-0.1c2.1-0.3,8.4-1,12.1-1.2
										l6.3-0.4c0.7,0,1.4,0,2.1-0.1c0.1-0.1,0.2-0.1,0.2-0.2c0.2-0.1,0.3-0.2,0.5-0.3C84.4,98.7,84.6,98.6,84.7,98.5z"/>
  <path d="M92.9 77.3c-.2.5-.4.9-.7 1.2 2-.6 3.6-1.7 4.3-3 1.7-2.9.4-5-2.3-5.3l-2.8 0c0 0-.5.4-1.4 1.7C93.3 72 94.7 73.6 92.9 77.3zM88.1 91.3c-.5 1.1-1.2 2-2 2.7 2.1-.5 4.4-1.8 5.7-4.5 2.1-4.5.2-6.3-3.1-6.3h-4.1c-.3.6-.6 1.2-.9 1.8H85C88.3 85 90.1 86.8 88.1 91.3z"/>
  <path class="st2" d="M86 94c.8-.7 1.5-1.6 2-2.7 2.1-4.5.2-6.3-3.1-6.3h-1.4c-2.3 4.9-3.7 9.4-3.7 9.4h3.6C84.2 94.3 85.1 94.2 86 94zM92.2 78.5c.2-.3.5-.7.7-1.2 1.7-3.7.4-5.3-2.9-5.4-.9 1.3-2.1 3.5-3.7 7.1h2.5C90.1 79 91.2 78.8 92.2 78.5z"/>
  <g>
    <path class="st1" d="M108.1,68.4c-1.3-2.1-4.5-3.4-10.2-3.7c0,0-5.7-0.8-13,0.2c-2.9,0.4-16.8,1.8-28.7,7.6
									C66.6,70,78.9,69,86.7,68.8c3.3-0.1,6.9,0,6.9,0c2.3,0,4.5,0.7,5.3,2c0.9,1.4,1.1,3.1-0.5,5.1c-0.9,1.1-1.9,2.3-5,3.6
									l3.5-0.7c5.2-1.1,9.9-4,11-6.3C108.7,70.8,108.8,69.5,108.1,68.4z"/>
  </g>
  <path class="st1" d="M85.9,97.8c4.1-2.6,9.3-5,15.3-6.6c0.4-0.5,0.7-1,1-1.6c0.6-1.3,0.7-2.9,0.2-4.1
								c-0.6-1.9-1.9-3.2-5.9-4.1c-5.3-1.2-13-0.7-13-0.7c1.8-4.3,3.1-6.8,4.4-9c-1.1-0.1-6.9,0.5-11.3,4.8
								c-3.8,3.4-8,12.2-11.3,22.8c5.7-0.6,10.8-0.9,10.8-0.9l5.4-0.2C82.9,98,84.4,97.9,85.9,97.8z M82.9,81.7h5.7
								c3,0,4.3,1.2,5,2.2c1,1.6,0.8,3.8-0.4,6.5c-2.3,5.2-8,5.7-9.7,5.7L77,96.3C79.8,87.4,82.9,81.7,82.9,81.7z"/>
  <g>
    <path d="M134.1,83.4c0.9,2.1-0.3,4.3-2.7,5.1c-2.3,0.8-4.9-0.3-5.8-2.3c-0.9-2.1,0.3-4.3,2.7-5.1
					C130.6,80.3,133.2,81.3,134.1,83.4z" fill="#c8102e"/>
    <path class="st0" d="M128.1,86.4c-0.7-1.5,0.3-3.3,2.1-3.9c0.7-0.2,1.4-0.3,2.1-0.1c-0.9-0.6-2.1-0.7-3.3-0.4
					c-1.8,0.6-2.8,2.3-2.1,3.9c0.4,1,1.3,1.6,2.4,1.8C128.7,87.4,128.3,87,128.1,86.4z"/>
    <path d="M133.9,84.6c0.5,1.2-0.2,2.6-1.5,3.1c-1.3,0.5-2.7-0.2-3.2-1.4c-0.5-1.2,0.2-2.6,1.5-3.1
					C131.9,82.8,133.4,83.4,133.9,84.6z"/>
  </g>
</svg>
