<svg id="RAVN" xmlns="http://www.w3.org/2000/svg" viewBox="0 0 202.4 90">
  <style>
    .st0{fill:#fff}.st1{fill:#9a7611}.st2{fill:#24135f}
  </style>
  <title>
    NFLSHOP_3C_TLP_baltimore_ravens
  </title>
  <path class="st0" d="M128.3 37.1c0 2.7-1.2 4.5-4.7 4.5H119V26.3h4.2c3.5 0 4.7 1.5 4.7 4.2v.1c.1 1.1-.4 2.2-1.3 2.9 1.2.6 1.9 1.9 1.7 3.3L128.3 37.1 128.3 37.1zM123 29.1h-.7v3.2h.7c.7.2 1.4-.3 1.6-1 0-.2 0-.4 0-.5C124.6 29.5 124.2 29.1 123 29.1L123 29.1zM123.3 34.9h-1v3.8h1c1.3 0 1.6-.5 1.6-1.8C124.9 35.6 124.7 34.9 123.3 34.9L123.3 34.9zM132.1 41.6h-3.5l2.4-15.3h4.9l2.4 15.3h-3.5l-.3-2.9h-2L132.1 41.6zM132.8 35.9h1.4l-.7-6.3L132.8 35.9zM139.1 41.6V26.3h3.3v12.3h3.7v3L139.1 41.6 139.1 41.6zM148.1 29.1h-2.6v-2.8h8.5v2.8h-2.6v12.5h-3.3V29.1zM155 26.3h3.3v15.3H155V26.3zM165.7 35.4l1.2-9.1h4.8v15.3h-3L169 31l-1.6 9.2H164l-1.6-9.2.3 10.6h-3V26.3h4.8L165.7 35.4zM182.2 37.4c0 2.7-1.2 4.4-4.7 4.4s-4.7-1.7-4.7-4.4v-7c0-2.7 1.2-4.4 4.7-4.4s4.7 1.7 4.7 4.4V37.4L182.2 37.4zM176.2 36.9c0 1.5.2 2 1.3 2s1.3-.5 1.3-2v-6.1c0-1.5-.2-2-1.3-2s-1.3.5-1.3 2V36.9zM186.8 41.6h-3.3V26.3h4.9c3.6 0 4.7 1.8 4.7 4.5v.3c0 1.8-.6 3.2-2 3.9l2.4 6.6h-3.9l-1.7-5.9h-1L186.8 41.6 186.8 41.6zM188 29.1h-1.2v3.8h1.2c1.3 0 1.6-.5 1.6-1.8C189.7 29.6 189.4 29.1 188 29.1L188 29.1zM194.1 41.6V26.3h8.3v3h-5v3.1h3.8v2.8h-3.8v3.3h5v3L194.1 41.6 194.1 41.6zM122.3 60.2H119V44.9h4.9c3.6 0 4.7 1.8 4.7 4.5v.3c0 1.8-.6 3.2-2 3.9l2.4 6.6h-3.9l-1.7-5.9h-1L122.3 60.2 122.3 60.2zM123.6 47.7h-1.2v3.8h1.2c1.3 0 1.6-.5 1.6-1.8C125.2 48.2 125 47.7 123.6 47.7L123.6 47.7zM132.5 60.2H129l2.4-15.3h4.9l2.4 15.3h-3.4l-.3-2.9h-2L132.5 60.2zM133.1 54.5h1.4l-.7-6.3L133.1 54.5zM144.4 44.9h3.5l-2.4 15.3h-4.9l-2.4-15.3h3.5l1.3 12L144.4 44.9zM148.6 60.2V44.9h8.3v3h-5V51h3.8v2.9H152v3.3h5v3L148.6 60.2 148.6 60.2zM163.8 60.2l-3-9.2.4 9.2H158V44.9h3.6l3 9.2-.4-9.2h3.2v15.3H163.8zM168 59.1l1.2-2.8c.8.6 1.8.9 2.8.9 1.1 0 1.6-.4 1.6-1.4 0-1.2-.9-1.7-2-2.3-1.9-1-3-1.9-3-4.5 0-2.7 1.4-4.4 4.8-4.4 1.3-.1 2.5.3 3.5 1l-1.2 2.8c-.7-.4-1.4-.6-2.2-.6-.7-.1-1.3.3-1.4 1 0 .1 0 .2 0 .2 0 .9.5 1.2 1.7 1.8 2.4 1.2 3.3 2.1 3.3 4.9 0 2.9-1.6 4.6-4.7 4.6C170.8 60.5 169.3 60 168 59.1zM99.6 50.6c-.4-2.5-2-6.1-7.4-9.3-.4-.2-.8-.4-1.2-.6l2.1-.7-6-2.3c-.5-.2-1.1-.4-1.6-.6l.8-.8-4.6-.7c-1.6-.2-3.2-.3-4.8-.3 0-.2 0-.4 0-.5l-.8-5.8-2 2.7c-.4-.6-.8-1.2-1.3-1.8l-5-5.6.4 3c-1.7-1.2-3.5-2.2-5.3-3-8-3.4-18.1-4.1-27.8-2-11.7 2.7-22.1 9.4-29.4 19L0 48.2l8.4-3.3c3.8-1.5 7.8-2.5 11.8-3.2 2-.3 3.5-.3 2.2 2.4-.9 1.8-2 3.6-3.1 5.2l-4.2 6.1 7-2.4c2.6-.9 5.2-1.6 8-1.8.3 0 .5.1.6.4 0 .1 0 .3-.1.4-.1.3-.3.5-.5.8L25.6 59l7.2-2.6c5.2-1.9 12.1-3.1 14.6-2.2.2.1.8.4.2 1.4l-2.8 4.5 4.8-.7c.1 2.4 1.1 4.8 2.7 6.6l3 3.1 1.1-4.2c.4-2.2 1.7-4.2 3.5-5.6l.2 1.7 2.8-1c2-.7 3.9-1.7 5.6-3.1 3.4-.3 6.9-.3 10.3 0 4.5.5 9 .3 13.4-.6 1.1-.2 2.2-.1 3.3.3l2.2 1.2 1.2-2.3c.5-1.1.8-2.4.8-3.6C99.7 51.5 99.7 51 99.6 50.6z"/>
  <path class="st1" d="M98.6,51c-0.4-2.2-1.8-5.4-6.8-8.4c-1.4-0.8-2.8-1.5-4.3-2.1l1.7-0.6l-2.4-1c-1.2-0.5-2.5-0.9-3.8-1.2l0.5-0.5
	L81.7,37c-2-0.3-4-0.4-6-0.2c0-0.2,0-0.5,0-0.8c0-0.3,0-0.7-0.1-1l-0.3-2.3l-1.3,1.8c-0.5-1.3-1.2-2.5-2.1-3.6l-2-2.3l0.2,1.9
	c-2.3-2.1-4.9-3.7-7.7-4.9c-7.8-3.3-17.7-4-27.1-1.9c-11.5,2.6-21.6,9.2-28.8,18.5l-2.4,3l3.6-1.4c3.9-1.5,8-2.7,12.2-3.4
	c2.1-0.3,3.6,0,4.1,0.7s0.3,2.1-0.4,3.7c-1,1.9-2.1,3.7-3.3,5.4l-1.8,2.6l3-1c4-1.4,9-2.4,10.1-1.6c0.2,0.1,0.4,0.4,0.5,0.7
	c0,1-0.4,2-1,2.8l-1.9,2.7l3.1-1.1c4.9-1.8,13.8-3.8,16.5-1.7c1.3,1,0.1,2.9,0,3l-1.2,1.9l2.3-0.3l1.1-0.2c0,0.2,0,0.4,0,0.5
	c-0.1,2.5,0.7,4.9,2.3,6.8l1.3,1.3l0.5-1.9c1.3-5.1,4.3-6.8,6-7.4l0.3,2l1.2-0.4c2-0.6,3.9-1.7,5.5-3.1c3.7-0.3,7.4-0.3,11.1,0
	c4.3,0.5,8.7,0.3,13-0.5c1.4-0.3,2.9-0.2,4.3,0.4l0.9,0.5l0.5-0.9c0.4-0.9,0.6-2,0.6-3C98.7,51.8,98.6,51.4,98.6,51z"/>
  <path d="M91.1,43.7c-2.3-1.5-4.9-2.6-7.6-3.3c0.7-0.2,1.5-0.3,2.3-0.3c-1.7-0.6-3.5-1.1-5.3-1.3l0.6-0.6c-2.2-0.4-4.4-0.5-6.6-0.4
	c0.2-1,0.3-1.9,0.1-2.9c-0.3,0.7-0.7,1.4-1.3,1.8c-0.1-1.9-0.9-3.7-2.2-5l0.3,2.6c-1.4-2.1-4-4.8-9-7.1c-13.6-6.4-37.5-3.9-50.7,13
	c3.8-1.7,8-2.6,12.2-2.7c3.7-0.1,4.6,2,3.3,5.5c-1,2.3-2.2,4.6-3.7,6.6c0,0,16-5.7,11,2.2c0,0,12.1-3.6,15.7,0.6
	C52,54.3,50,57,50,57l3.4-0.7c-0.7,2.4-0.5,5,0.8,7.1c1-3.9,4.1-6.9,8.1-7.5l0.4,1.5c1.9-0.6,3.7-1.6,5.1-3.1
	c6.2-1,10.4-0.1,15.2,0.1c7,0.4,10.6-0.8,11.7-0.8c0.7,0.1,1.3,0.3,1.8,0.7C96.5,54.4,99.5,49.5,91.1,43.7z"/>
  <path class="st0" d="M85.4,52.9c2.7,0,5.4-0.2,8.1-0.8c-7.5-3.2-22.3-4.6-24.6-4.4c0,0-1.2,0.3,0.2,1.7c-2-0.8-4-2.3-4.2-3.1
	s1.3-1,4.8-0.6c13,1.5,24.3,3.7,25.8,6.9c0,0,0.8-4-5.7-7.8c-5.6-3.7-14.1-4.3-14.1-4.3l2.2,1.7l-4-0.3l3.2,2.3
	c-3.4-1.1-12.6-4.1-20.2-2.2c0,0,8.3-0.1,12.2,2.2c-14.1-2.3-21.4,2.6-21.4,2.6c5.3-1.6,10.9-2,16.3-1.3c-3.3,0.8,0.6,3.2,3,4.5
	c0.3,0.7,0.9,2,0.3,3.2c0.5-0.7,0.9-1.5,1.2-2.3l2,1.6C76.3,51.7,80.6,52.9,85.4,52.9z"/>
  <path class="st2" d="M58.8,27.6c-15.4-4.6-31.5-0.1-40.4,8.4c0,0,9-2.8,11.7,0c3.1,3.2-1.6,10.8-1.6,10.8l3.1-0.5h-0.4
	c2.4-8.5,4.6-11.5,6.1-12.9c1-1,2.3-1.8,3.7-2.2c-5.5,0.3-11,1-16.4,2.1c5.2-4,17.3-6.9,24.3-6.2s6.5,3.5,5.8,5.2
	c-0.6,1.3-3.4,3.1-6.1,3.7c2.8,0.4,4.3,2.5,3.3,4.6c-0.1,0.2-0.2,0.4-0.3,0.5c-2.7,0.6-5.3,1.6-7.8,3l-0.2,0.1l-0.3,0.2L43,44.7
	l-0.3,0.2L42.5,45l-0.3,0.2l-0.2,0.2l-0.2,0.2c-1.4,0.9-2.7,2.1-3.7,3.4c0,0,18.2-3.7,15,5.5l4.7-1.3c-0.5,0.7-1,1.4-1.6,2
	c-1.3,1.3-2,3-2.1,4.8c0,0,0.7-2.6,4.8-4.3c3.8-1.6,4.7-4.3,4.7-4.3c0.8,1.4,0.9,3.1,0.2,4.5c1.3-0.5,2.5-1.4,3.3-2.6
	c0.6-1.2,0-2.5-0.3-3.2c-2.4-1.3-6.3-3.7-3-4.5c-5.5-0.7-11-0.2-16.3,1.3c0,0,7.3-4.9,21.4-2.6C65.3,41.9,56.9,42,56.9,42
	c3-0.7,6-0.8,9-0.4c-1.5-0.4-3.1-0.8-4.7-1c-2.7-0.3-5.5-0.2-8.2,0.3c2.9-3,8.1-2.6,8.1-2.6c-3.5-2.3-8-1.6-8-1.6
	c3.3-1.6,7-2.2,10.7-1.7c-1.8-2.3-6-2.9-6-2.9c8.3-0.3,11.3,4,11.3,4c-1.1-0.5-2.3-0.8-3.6-0.8c1.5,0.4,2.7,1.5,3.4,2.9
	c1.4,2.7,2.7,2.6,2.7,2.6S73.8,32.1,58.8,27.6z"/>
  <path class="st0" d="M42.3,45.1l0.5-0.3l0.3-0.2l0.2-0.1l0.3-0.2l0.2-0.1c2.4-1.4,5-2.4,7.8-3c0.1-0.2,0.2-0.4,0.3-0.5
	c1-2.1-0.6-4.3-3.3-4.6c2.7-0.6,5.5-2.3,6.1-3.7c0.7-1.6,1.2-4.5-5.8-5.2s-19.1,2.1-24.3,6.1c5.4-1.1,10.9-1.8,16.4-2.1
	c-1.4,0.4-2.7,1.2-3.7,2.2c-1.5,1.5-3.7,4.4-6.1,12.9h0.4c1-0.1,4.2-0.5,6-0.6l3.1-0.2c0.3,0,0.7,0,1,0l0.1-0.1l0.2-0.2L42.3,45.1z"/>
  <path d="M46.4 34.6c-.1.2-.2.4-.3.6.9-.2 1.7-.7 2.2-1.5.8-1.5.2-2.5-1.2-2.7h-1.4c-.3.3-.5.6-.7.9C46.6 31.9 47.2 32.7 46.4 34.6zM44 41.5c-.2.5-.6 1-1 1.3 1.2-.3 2.3-1.1 2.8-2.2 1-2.2.1-3.2-1.5-3.2h-2.1c-.2.3-.3.6-.4.9h.7C44.1 38.4 45 39.3 44 41.5z"/>
  <path class="st2" d="M42.9 42.9c.4-.4.8-.8 1-1.3 1-2.2.1-3.2-1.5-3.2h-.7c-.7 1.5-1.3 3.1-1.9 4.7h1.8C42.1 43 42.5 43 42.9 42.9zM46 35.2c.1-.2.2-.4.3-.6.9-1.8.2-2.7-1.4-2.7-.7 1.1-1.3 2.3-1.8 3.5h1.2C44.9 35.4 45.5 35.3 46 35.2z"/>
  <path class="st1" d="M54,30.1c-0.7-1.1-2.2-1.7-5.1-1.9c-2.2-0.2-4.3-0.2-6.5,0.1c-1.4,0.2-8.4,0.9-14.3,3.8
	c5-1.1,10.1-1.7,15.2-1.9c1.6-0.1,3.4,0,3.4,0c1-0.1,2,0.3,2.7,1c0.5,0.8,0.4,1.9-0.3,2.6c-0.6,0.8-1.5,1.5-2.5,1.8l1.7-0.4
	c2.6-0.6,5-2,5.5-3.2C54.3,31.5,54.3,30.7,54,30.1z"/>
  <path class="st1" d="M42.9,44.8c2.4-1.5,4.9-2.6,7.6-3.3c0.2-0.2,0.3-0.5,0.5-0.8c0.3-0.6,0.3-1.4,0.1-2.1c-0.3-1-1-1.6-3-2
	c-2.1-0.4-4.3-0.5-6.5-0.3c0.6-1.6,1.4-3.1,2.3-4.5c-2.1,0.1-4.1,1-5.6,2.4c-1.9,1.7-4,6.1-5.7,11.4C35.4,45.1,38,45,38,45l2.7-0.1
	C41.4,44.9,42.1,44.8,42.9,44.8z M41.4,36.8h2.9c1-0.1,1.9,0.3,2.5,1.1c0.5,0.8,0.4,1.9-0.2,3.2c-1.2,2.6-4,2.8-4.8,2.8l-3.2,0.1
	C39.2,41.5,40.2,39.1,41.4,36.8L41.4,36.8z"/>
  <path d="M66.9,37.6c0.4,1-0.1,2.1-1.1,2.5c-0.1,0-0.1,0-0.2,0.1c-1.1,0.4-2.4-0.1-2.9-1.2c-0.4-1,0.1-2.1,1.1-2.5
	c0.1,0,0.1,0,0.2-0.1C65.1,36,66.4,36.5,66.9,37.6z" fill="#c8102e"/>
  <path class="st0" d="M63.9,39.1c-0.3-0.8,0.1-1.6,0.9-1.9c0,0,0.1,0,0.1,0c0.3-0.1,0.7-0.1,1-0.1c-0.5-0.3-1.1-0.4-1.6-0.2
	c-0.8,0.2-1.3,1-1,1.8c0,0,0,0.1,0,0.1c0.2,0.5,0.7,0.8,1.2,0.9C64.2,39.6,64,39.3,63.9,39.1z"/>
  <path d="M66.8,38.2c0.2,0.6-0.1,1.3-0.7,1.5c0,0,0,0,0,0c-0.6,0.2-1.3-0.1-1.6-0.7c-0.2-0.6,0.1-1.3,0.7-1.5c0,0,0,0,0,0
	C65.8,37.3,66.5,37.6,66.8,38.2z"/>
</svg>
