<svg id="BILL" xmlns="http://www.w3.org/2000/svg" viewBox="0 0 182.5 90">
  <style>
    .st0{fill:#fff}.st2{fill:#00338d}
  </style>
  <title>
    NFLSHOP_3C_TLP_buffalo_bills
  </title>
  <path class="st0" d="M127.9 37.7c0 2.7-1.2 4.5-4.7 4.5h-4.6V26.8h4.2c3.5 0 4.7 1.5 4.7 4.2v.1c.1 1.1-.4 2.2-1.3 2.9 1.2.6 1.9 1.9 1.7 3.3L127.9 37.7 127.9 37.7zM122.6 29.7h-.7v3.2h.7c.7.2 1.4-.3 1.6-1 0-.2 0-.4 0-.5C124.2 30.1 123.8 29.7 122.6 29.7L122.6 29.7zM122.9 35.5h-1v3.8h1c1.3 0 1.6-.5 1.6-1.8S124.3 35.5 122.9 35.5L122.9 35.5zM128.9 38V26.8h3.4v10.8c0 1.2.2 1.7 1.2 1.7s1.2-.5 1.2-1.7V26.8h3.4V38c0 2.7-1.2 4.3-4.5 4.3S128.9 40.7 128.9 38zM146.9 26.8v3h-4.4v3.6h3.4v2.9h-3.4v5.8h-3.3V26.8H146.9zM155.5 26.8v3h-4.4v3.6h3.4v2.9h-3.4v5.8h-3.3V26.8H155.5L155.5 26.8zM158.7 42.1h-3.5l2.4-15.3h4.9l2.3 15.3h-3.5l-.3-2.9h-2L158.7 42.1zM159.4 36.5h1.4l-.7-6.3L159.4 36.5zM165.7 42.1V26.8h3.3v12.3h3.7v3L165.7 42.1 165.7 42.1zM182.5 38c0 2.7-1.2 4.4-4.7 4.4s-4.7-1.7-4.7-4.4v-7c0-2.7 1.2-4.4 4.7-4.4s4.7 1.7 4.7 4.4V38zM176.5 37.5c0 1.5.2 2 1.3 2s1.3-.5 1.3-2v-6.1c0-1.5-.2-2-1.3-2s-1.3.5-1.3 2V37.5zM127.9 56.3c0 2.7-1.2 4.5-4.7 4.5h-4.6V45.5h4.2c3.5 0 4.7 1.5 4.7 4.2v.2c.1 1.1-.4 2.2-1.3 2.9 1.2.6 1.9 1.9 1.7 3.3L127.9 56.3 127.9 56.3zM122.6 48.3h-.7v3.2h.7c.7.2 1.4-.3 1.6-1 0-.2 0-.4 0-.5C124.2 48.7 123.8 48.3 122.6 48.3L122.6 48.3zM122.9 54.1h-1v3.8h1c1.3 0 1.6-.5 1.6-1.8S124.3 54.1 122.9 54.1L122.9 54.1zM129.1 45.5h3.3v15.3h-3.3V45.5zM133.9 60.8V45.5h3.3v12.3h3.7v3L133.9 60.8 133.9 60.8zM141.7 60.8V45.5h3.3v12.3h3.7v3L141.7 60.8 141.7 60.8zM148.8 59.7l1.2-2.8c.8.6 1.8.9 2.8.9 1.1 0 1.6-.4 1.6-1.4 0-1.2-.9-1.7-2-2.3-1.9-1-3-1.9-3-4.5s1.4-4.4 4.8-4.4c1.3-.1 2.5.3 3.5 1l-1.2 2.8c-.7-.4-1.4-.6-2.2-.6-.7-.1-1.3.4-1.4 1.1 0 .1 0 .1 0 .2 0 .9.5 1.2 1.7 1.8 2.4 1.2 3.3 2.1 3.3 4.9 0 2.9-1.6 4.6-4.7 4.6C151.6 61 150.1 60.6 148.8 59.7zM10.6 59c7-4.5 9.1-9.5 9.1-9.5L0 52.4l8.4-14.9 16.8-1.4c5-4.2 10.7-7.5 16.7-10 0 0 1.1-1.8 6.8-5.2 3.6-2.1 7.4-3.8 11.4-5.1 1.7-.6 3.5-1.1 5.3-1.5L65.1 13l7.8-.7.2-.7c2.2.1 4.3.6 6.3 1.3l.5-.7c3.8 2 7.1 5 9.4 8.6 2.5-.1 5.1.4 7.4 1.5 2.2 1 3.6 3.3 3.5 5.8-.1 3.7-.6 7.4-1.7 10.9-.1.5-.3.9-.5 1.4-.3.5-.6 1.1-1 1.6-1 1.1-1.9 2.2-2.5 3.5 0 0-.4 1.1-1.2 3.1 0 0-.6 2.8-4.6 2.9-1.7 2.2-3.6 4.3-5.5 6.4l-.1-1.2c-1.6 1.5-3.3 2.8-5.1 4l.8-7c0 0 .2-1.2-.6-1.3h-2c0 0 .7 4.2-.1 6.2 0 0-.5 3-5.2 4.5-2.6.8-5.3 1.3-8 1.5L62 64.2l-6.6 2.7 1.9-6.9c0 0-2.5.2-2.7-.1l-7.3 3.2 2.9-8.3 2-1.1-.6-.9h-4.1L46 54c-2.2-.5-4.5-.8-6.8-.7L22.1 67.3l-4.3 9.4-5.1-6.8 1.6-2.1-.6-.5-2.3 1.8L8 78.4l-5-7.1 1.3-2.9-.3-1.8c1.2-.7 2.3-1.5 3.2-2.5.4-.5.8-1 1.1-1.6.4-1.1.5-2.3 1-2.7S10.4 59.1 10.6 59z"/>
  <path d="M9.3,39L2.8,50.5L87,38c0,0-2.9-2.2,1.3-5.7L9.3,39z" fill="#c60c30"/>
  <path class="st2" d="M94.8,30.6c0,0-6.6,4.5-4.3,8.4c0,0-2.4,1.3,0.2,3.2c0,0-4.1,1.8-3-3.2L21.6,49c0,0-1.4,6-10.8,11.7
	c-0.4,0.3-0.7,0.7-0.8,1.2c0,0.8-0.3,1.5-0.8,2.1c-0.9,1.4-2.1,2.5-3.5,3.4l0.1,1.2l-1.1,2.6l2.8,4l2.5-6.9l5-3.9
	c0,0,4.9-7.7,13-10.7c0,0,7.1-3,17.6-1.3l1-0.9l12.2-0.2c0,0,0.5,0.1,0.2,0.3c-1.5,1.1-3.2,1.8-5,2.1l0.2,0.7c0,0.1,0,0.3-0.1,0.3
	l-2.5,1l-1.7,4.7l4.8-2.1l0.3,0.2c3.5,0.1,7-0.3,10.4-1c0,0,4.3-0.8,5.5-6.4l8.2-0.4c0.9,0.2,1.6,1,1.5,2l-0.6,4.7l3.8-3.3l0.3,0.9
	c0,0,2.8-3.1,3.6-4.8c0,0,3.1,0.1,3.9-1.2c0.6-1,1-2,1.3-3.1c0.5-1.5,1.3-2.8,2.4-3.8c0,0,1.5-1.4,2.3-5.1c0,0,1-5.3,1-6.3
	c0,0,1.1-5.3-2.5-6.8c0,0-2.7-1.5-7.7-1.1c0,0-1-3.5-7.9-8.3l-0.5,0.8c-1.7-1.1-3.7-1.6-5.7-1.6l-0.2,0.5c0,0-2,0-6.5,0.4l0.4,1.2
	c0,0-9.2,0.4-22.1,9.1l-0.2,0.7l-1.6,0.8l0.9,0.5c0,0-10,3.6-17.2,9.5L94.8,30.6z"/>
  <path class="st2" d="M71.6 52.1h2.8c.3 1.8.4 3.6.2 5.4-.4 1.6-1.6 2.9-3.1 3.5-3 1.1-6.1 1.8-9.3 1.9L62 62.7l-4.3 1.7 1.4-4.9c2.5-.2 5-.5 7.4-1C66.5 58.5 70.9 57.7 71.6 52.1zM36.6 53.5c-6.5.2-12.7 3.1-17 8 0 0 0 3-3.6 5l.1.9-1.7 2.3 3 4 3.4-7.5L36.6 53.5z"/>
</svg>
