<svg id="EAGL" xmlns="http://www.w3.org/2000/svg" viewBox="0 0 225.4 90">
  <style>
    .st0{fill:#fff}.st1{fill:#004c54}.st2{fill:#a5acaf}
  </style>
  <title>
    NFLSHOP_3C_TLP_philadelphia_eagles
  </title>
  <path class="st0" d="M123.1 42h-3.3V26.7h4.4c3.5 0 4.7 1.7 4.7 4.4v1.5c0 2.7-1.2 4.3-4.7 4.3h-1L123.1 42 123.1 42zM123.9 29.6h-.8v4.6h.8c1.3 0 1.6-.6 1.6-2.1C125.5 30.3 125.3 29.6 123.9 29.6L123.9 29.6zM133.1 35.8V42h-3.3V26.7h3.3v6.1h2.7v-6.1h3.3V42h-3.3v-6.2H133.1zM140.6 26.7h3.3V42h-3.3V26.7zM145.3 42V26.7h3.3V39h3.7v3L145.3 42 145.3 42zM156.2 42h-3.5l2.4-15.3h4.9l2.4 15.3h-3.5l-.4-2.9h-2L156.2 42zM156.8 36.4h1.4l-.7-6.3L156.8 36.4zM172.2 37.7c0 2.6-1.2 4.3-4.7 4.3h-4.3V26.7h4.3c3.5 0 4.7 1.7 4.7 4.4L172.2 37.7 172.2 37.7zM168.8 31.7c0-1.5-.3-2.1-1.6-2.1h-.7v9.7h.7c1.3 0 1.6-.6 1.6-2.1V31.7L168.8 31.7zM173.4 42V26.7h8.3v3h-5v3.1h3.8v2.8h-3.8V39h5v3L173.4 42 173.4 42zM182.9 42V26.7h3.3V39h3.7v3L182.9 42 182.9 42zM194.1 42h-3.3V26.7h4.4c3.5 0 4.7 1.7 4.7 4.4v1.5c0 2.7-1.2 4.3-4.7 4.3h-1L194.1 42 194.1 42zM194.9 29.6h-.8v4.6h.8c1.3 0 1.6-.6 1.6-2.1C196.6 30.3 196.3 29.6 194.9 29.6zM204.1 35.8V42h-3.3V26.7h3.3v6.1h2.7v-6.1h3.3V42h-3.3v-6.2H204.1zM211.6 26.7h3.3V42h-3.3V26.7zM219.3 42h-3.5l2.4-15.3h4.8l2.4 15.3h-3.5l-.3-2.9h-2L219.3 42zM219.9 36.4h1.4l-.7-6.3L219.9 36.4zM119.8 60.7V45.4h8.3v3h-5v3.1h3.8v2.9h-3.8v3.3h5v3L119.8 60.7 119.8 60.7zM132.1 60.7h-3.5l2.4-15.3h4.9l2.4 15.3h-3.4l-.3-2.9h-2L132.1 60.7zM132.7 55h1.4l-.7-6.3L132.7 55zM144.4 57.4v-2.9h-1V52h4.1v8.6h-2.2l-.2-.8c-.7.7-1.7 1.1-2.8 1-2.4 0-3.5-1.5-3.5-4.2v-7c0-2.6 1.3-4.5 5-4.5 1.4-.1 2.7.3 3.9 1l-1.3 2.8c-.7-.4-1.6-.7-2.4-.7-.9-.1-1.7.5-1.9 1.3 0 .1 0 .3 0 .4v5.9c0 1.5.4 1.9 1.2 1.9C143.8 57.8 144.1 57.7 144.4 57.4zM148.8 60.7V45.4h3.3v12.3h3.7v3L148.8 60.7 148.8 60.7zM156.7 60.7V45.4h8.3v3h-5v3.1h3.8v2.9H160v3.3h5v3L156.7 60.7 156.7 60.7zM165.4 59.6l1.2-2.8c.8.6 1.8.9 2.8.9 1.1 0 1.6-.4 1.6-1.4 0-1.2-.9-1.7-2-2.3-1.9-1-3-1.9-3-4.5 0-2.7 1.4-4.4 4.8-4.4 1.3-.1 2.5.3 3.5 1l-1.3 2.7c-.7-.4-1.4-.6-2.2-.6-.7-.1-1.3.3-1.4 1 0 .1 0 .2 0 .2 0 .9.5 1.2 1.7 1.8 2.4 1.2 3.3 2.1 3.3 4.9 0 2.9-1.6 4.6-4.7 4.6C168.1 60.9 166.6 60.5 165.4 59.6zM58.8 15.4l-4.9 5.2c8.1-3.4 25.7-9.1 25.7-9.1l-5.6 5.5c15.4-4.5 27.1-6.7 27.1-6.7C98.6 15.7 95.7 21 92.6 26l7.4-.9c-3.6 5.9-7.8 11.3-12.4 16.4l3.7.9c-3.9 5.5-8.4 10.6-13.4 15.2-11 9.8-16.7 8.3-16.7 8.3-8.2 5.9-14.7 2.9-14.7 2.9s2.8-7.1-.1-7.9c-2.6-.7-6.6 1.4-7.1 2.2-1.2 3.3-2.9 6.4-5 9.1-2.5 3.1-5.6 5.7-9.1 7.5-2.4-2.3-3.8-5.4-3.8-8.7-1.9 1.8-4.3 3.1-6.8 3.7-3 .6-7 .1-11.1-3.3C.5 69 0 61.2 0 61.2c2-3.5 4.6-6.7 7.7-9.4-.9-.8-1.6-1.8-2-2.9C19 43.1 19 37.5 29.7 30.7 40.2 24 46.8 21 58.8 15.4z"/>
  <path class="st1" d="M52.3,20.1l-4.2,4.4c8.3-3.7,25.9-9.7,25.9-9.7l-5.1,5c9.6-3.1,19.5-5.6,29.4-7.5c-2.5,5.4-5.4,10.5-8.7,15.4
	C92,27.5,97,27,97,27c-3.5,5.6-7.7,10.9-12.4,15.5c0.8,0.1,4.2,0.9,4.2,0.9c-3.5,4.9-7.7,9.4-12.2,13.4c-9.9,8.7-14.3,7.7-14.3,7.7
	c0.1-0.3,0.1-0.6,0.1-0.9c0-0.2,0-0.4-0.1-0.6c-7.6,7.2-14,4.8-14,4.8s2.8-6.8-1.5-8.2c-3.3-1.1-8.5,1.7-8.9,3.2
	c-1.1,3.1-2.7,6-4.7,8.6c-2.1,2.7-4.8,4.9-7.7,6.6c0,0-3.7-2.8-2.4-11.1c0.3-1.8-0.1-2.5-0.3-2.8c-0.6-0.9-5.3,0.1-6.5,2.7
	c-0.8,1.9,3.9,3.5,3.9,3.5c-1.6,1.6-3.7,2.7-5.9,3.2c-2.4,0.5-6.1,0.3-9.9-3c-2.3-2-2.8-8.7-2.8-8.7c2.2-3.7,5-6.9,8.3-9.7
	c-0.9-0.6-1.6-1.4-2.1-2.4C18.8,44.7,20.3,38,32.8,30.4C39.1,26.6,45.6,23.1,52.3,20.1z"/>
  <path d="M81.8 43.4c1.1.2 2.2.5 3.3.8-3.8 6.2-15.2 18.3-21.6 18.9-.1-.9-.4-1.9-1-2.6-2.4 4.4-9.7 7-12.7 6.3 3.7-13.5-11.9-8.3-13.1-4.6-2 5.8-5.8 10.8-11 14.1 0 0-2.5-2.9-1.4-9.3.8-4.8-2.2-4.6-2.2-4.6-1.2-.1-5.8.5-7.2 3.7-1.2 2.6 2.9 4.4 2.9 4.4s-5.8 4.7-12.6-1.2c-1.7-1.4-2.3-7.4-2.3-7.4 2.4-4 5.6-7.4 9.4-10.1-1-.3-1.8-.9-2.5-1.7 9.1-4.2 12.7-11.1 20.5-16.3 4.8-3.2 9.8-6.1 15.1-8.5l-2.5 3.1c0 0 2.1-.9 3-1.3 8.1-4 21.9-8.4 21.9-8.4l-4.3 4.2c5.3-1.7 10.7-3.2 16.1-4.4 4.8-1 14.8-3.1 14.8-3.1C92.5 20.3 90 25 87 29.3c3-.2 6.3-.4 6.3-.4C90.2 34.3 86.4 39.2 81.8 43.4zM44.7 34.1l-.3.1L44.7 34.1 44.7 34.1 44.7 34.1zM44.4 34.2L44.4 34.2z"/>
  <path class="st0" d="M55.1,50.3c0,0-4.4-2.1-11.2,0.1c6.6-3.5,14.2-4.6,21.5-3.2c-6.1-2-12.8-2-18.9,0c-1.3,0.5-2.6,1.1-3.9,1.7
	c0,0,0.6-0.4,1.8-1.1c3.3-2.4,6.8-4.3,10.5-5.9c3.2-1.3,6.6-2.1,10.1-2.6c-3.5-0.5-7.1-0.4-10.6,0.3c5-1.9,10.3-3,15.7-3.2
	c2.6-0.1,8.5,0.3,8.5,0.3c-8.5-2.5-17.4-3-23.5-2.1c-3.4,0.8-6.2,1.7-6.2,1.7s0.5-0.2,1.4-0.6c2.2-1.3,11.1-6.1,27.8-8.7
	c-1.6-0.2-3.2-0.3-4.7-0.2c-2.6,0.1-5.3,0.4-7.9,0.9c3.8-1.7,10.9-3.4,19.8-4.3c-10.1-0.7-20.2,0.4-29.8,3.5l-0.2,0.1
	c0,0,1.7-1.2,3.7-2.5c1.4-1,3.5-2.4,3.5-2.4c-6.8,1.8-13.4,4.3-19.7,7.4c-3.2,1.5-4.9,2.4-4.9,2.4c0.5-0.6,2.8-2.6,3.3-3.3
	c-8.4,4.1-11.5,6.9-16.5,12.2c-4.5,4.7-4.3,5.6-11,9.2c3.4,1.2,7.1,0.7,10.1-1.2c0.9-0.6,1.7-1.4,2.5-2.2c1.8-2.1,1.2-4.2,3.6-5.7
	c-0.5,0.9-0.8,1.8-1,2.8c1.6-2.1,3.6-3.8,5.9-5.1c6.4-3.8,10.6-4.5,10.6-4.5l-0.4,0.2c-8.7,3.6-10.2,8.3-10.2,8.8
	c-0.1,1.1,3.2-1.3,5.8-1.7c-2.8,1.1-5.1,3.3-6.3,6.1c-0.5,1.2-0.6,2.5-2,3.5c-0.5,0.4-1,0.8-1.6,1c-1.1,0.6-2.4,0.7-3.5,0.1
	c-0.2-0.1-0.3-0.3-0.4-0.5c1.1,0.2,2.3,0,3.2-0.7c0.7-0.5,1.3-1.1,1.7-1.9l0,0c0.4-0.6,0.4-1.4,0-2c-0.3-0.5-0.8-0.8-1.4-0.8
	c0.3-0.7,0.8-1.4,1.3-2c-1,0.7-1.8,1.6-2.6,2.6c0.6,0,1.1,0.4,1.4,0.8c0.5,1.2,0,2.5-1.2,3.1c-1,0.8-2.5,0.6-3.4-0.4
	c-0.1-0.1-0.1-0.3-0.2-0.4l-0.2,0.1c-0.4,0.2-1.2,0.5-1.2,0.5c0.4,0.1,0.8,0.1,1.2,0.1c0.1,1.4,1,3.6,5.8,2.3
	c-1.4,1.4-4.7,1.3-6.8,0.2c0.3,0.2,0.6,0.4,1,0.7c6.1,3.8,13.1,0.2,14.9-0.8c0.4-0.3,0.8-0.5,1.3-0.7c-1.2,1.1-2.2,2.5-3,4
	C40.6,53.7,46.8,49.3,55.1,50.3z"/>
  <path class="st2" d="M32.8,44.3c0.2,0.9,1.8,0,1.8,0c-1.2,1-2.2,2.3-3,3.7c0,0.4-0.1,0.7-0.3,1c0.2,0.1,0.4,0.1,0.7,0.1
	c0.4-0.1,0.8-0.2,1.2-0.4c-0.1,0.9-0.5,1.7-1.2,2.3c1.4-1,1.5-2.4,2-3.5c1.2-2.8,3.5-5,6.3-6.1c-2.7,0.3-5.9,2.7-5.8,1.7
	c0-0.5,1.5-5.2,10.2-8.9l-0.3,0.1C36.4,37.1,32.2,41.9,32.8,44.3z"/>
  <path class="st1" d="M29.5,48c0.3,0.9-0.1,1.9-0.9,2.2c-0.7,0.6-1.8,0.5-2.4-0.2c-0.1-0.1-0.1-0.2-0.1-0.3c-0.2,0.1-0.4,0.2-0.5,0.3
	c0,0.1,0.1,0.3,0.2,0.4c0.8,1,2.3,1.2,3.4,0.4c1.2-0.5,1.7-1.9,1.2-3.1c-0.3-0.5-0.9-0.8-1.4-0.8l-0.5,0.6
	C28.8,47.4,29.2,47.6,29.5,48z"/>
  <path d="M28.5,50.2c0.9-0.4,1.3-1.4,0.9-2.2c-0.3-0.4-0.7-0.6-1.2-0.6c-0.4,0.5-0.8,1-1.3,1.4c0,0.5,0.2,1,0.5,1.2
	c-0.3,0-0.6-0.1-0.9-0.2c-0.2-0.1-0.3-0.3-0.3-0.4L26,49.6c0,0.1,0.1,0.2,0.1,0.3C26.7,50.7,27.8,50.8,28.5,50.2z"/>
  <path class="st0" d="M26.7,49.8c0.3,0.2,0.6,0.2,0.9,0.2c-0.4-0.3-0.6-0.8-0.6-1.2c-0.2,0.2-0.4,0.4-0.7,0.6
	C26.4,49.6,26.5,49.7,26.7,49.8z"/>
  <path class="st2" d="M78.6,36.6c0,0-5.9-0.3-8.6-0.2c-5.4,0.3-10.7,1.4-15.7,3.3c3.5-0.7,7-0.9,10.6-0.3c-3.5,0.5-6.8,1.4-10.1,2.6
	c-3.7,1.5-7.2,3.5-10.5,5.9c10.1-5.9,22.1-7.9,33.5-5.5c1.4-1.2,2.7-2.5,3.9-3.9c3-3.3,3.7-5.3,3.7-5.3s-13.8-1.5-23.8,0.1
	c-2.2,0.3-4.5,0.8-6.5,1.3C61.1,33.6,70,34.1,78.6,36.6z"/>
  <path class="st2" d="M46.7 53c11.3-2.8 19.1.6 20 4.2l.2 0c1.8-.9 3.4-2.1 4.8-3.6 2.1-1.9 3.8-4 5.2-6.4-11.5-5.8-24.2-2.3-30.5.1 6.1-2 12.8-2 18.9 0-7.3-1.4-14.9-.2-21.5 3.2 6.9-2.2 11.2-.1 11.2-.1-8.3-1-14.5 3.4-16.7 6.1-.2.3-.3.7-.5 1C39.9 55.7 42 54.2 46.7 53zM85.2 23.3c-8.8.9-16 2.5-19.8 4.3 2.6-.5 5.3-.8 7.9-.9 1.6 0 3.2.1 4.7.2-16.7 2.6-25.6 7.4-27.8 8.7 4.5-1.8 9.1-3.2 13.9-4.1 6.5-1.3 14-1.6 17-1.9 2.7-2.7 4.7-5.9 6-9.4 0 0-7.5.6-16.1 2.2-5.4.9-10.7 2.4-15.8 4.5C65 23.7 75.1 22.5 85.2 23.3z"/>
  <path class="st2" d="M40.4 57.5c2.3-1.4 5-1.9 7.6-1.4 7.2 1.2 7 5.7 7 5.7 2-.9 3.7-2.4 4.8-4.2-1.6-1.4-3.6-2.2-5.7-2.6C44.7 53.4 40.4 57.5 40.4 57.5zM20.9 52.3c-1.8.5-3.7.5-5.4.1-1.5 1-6.8 3.3-10.2 9 .2 1.9.4 4.4 1.2 5.8 3.2 5.1 8.9 3.2 8.9 3.2S6.7 66.6 16 61c2.9-1.8 11.1-3.1 16-1.6.4.1.7.3.9.6-.5 2.5-2.5 9.4-5.9 11.4-1.9-2.7 3.1-9-2-9.2.8 1.4 1 3 .7 4.6-.7 2.4-.6 5 .3 7.4 5.2-3.6 8.8-9 10-15.1.2-.9.5-1.9 1-2.7C27.1 60.1 20.9 52.3 20.9 52.3zM17.9 55.7c-.7.2-2.2.4-1.5-.7 0 0 .9-.5 2.1-1.1.7.6 1.6.9 2.5.9L17.9 55.7z"/>
  <path d="M16.4,55.1c-0.7,1.1,0.8,0.9,1.5,0.7l3.1-0.9c-0.9,0-1.8-0.3-2.5-0.9C17.4,54.6,16.4,55.1,16.4,55.1z"/>
</svg>
