<svg id="_49ER" xmlns="http://www.w3.org/2000/svg" viewBox="0 0 233.2 90">
  <style>
    .st0{fill:#fff}
  </style>
  <title>
    NFLSHOP_3C_TLP_san_francisco_49ers
  </title>
  <path class="st0" d="M119 42.1l1.2-2.8c.8.6 1.8.9 2.8.9 1.1 0 1.6-.4 1.6-1.4 0-1.2-.9-1.7-2-2.3-1.9-1-3-1.9-3-4.5s1.4-4.4 4.8-4.4c1.3-.1 2.5.3 3.5 1l-1.2 2.8c-.7-.4-1.4-.6-2.2-.6-.7-.1-1.3.3-1.5 1 0 .1 0 .2 0 .2 0 .9.5 1.2 1.7 1.8 2.4 1.2 3.3 2.1 3.3 4.9 0 2.9-1.6 4.6-4.7 4.6C121.8 43.5 120.3 43 119 42.1zM131.9 43.2h-3.5l2.4-15.3h4.9l2.4 15.3h-3.5l-.3-2.9h-2L131.9 43.2zM132.5 37.5h1.4l-.7-6.3L132.5 37.5zM144.6 43.2l-3-9.2.4 9.2h-3.2V27.9h3.6l3 9.2-.4-9.2h3.2v15.3H144.6L144.6 43.2zM160.1 27.9v3h-4.4v3.6h3.4v2.9h-3.4v5.8h-3.3V27.9H160.1zM164.3 43.2H161V27.9h4.9c3.6 0 4.7 1.8 4.7 4.5v.3c0 1.8-.6 3.2-2 3.9l2.4 6.6h-3.9l-1.7-5.9h-1L164.3 43.2 164.3 43.2zM165.6 30.7h-1.2v3.8h1.2c1.3 0 1.6-.5 1.6-1.8C167.2 31.3 167 30.7 165.6 30.7L165.6 30.7zM174.5 43.2h-3.5l2.4-15.3h4.9l2.4 15.3h-3.5l-.3-2.9h-2L174.5 43.2zM175.2 37.5h1.4l-.7-6.3L175.2 37.5zM187.2 43.2l-3-9.2.4 9.2h-3.2V27.9h3.6l3 9.2-.4-9.2h3.2v15.3H187.2zM192.1 32.3c0-2.7 1-4.6 4.8-4.6 1.2 0 2.4.3 3.4.9l-1.2 2.7c-.6-.3-1.2-.5-1.9-.5-1.3 0-1.8.6-1.8 1.6v6.3c0 1 .5 1.6 1.8 1.6.7 0 1.3-.2 1.9-.5l1.2 2.7c-1 .6-2.2 1-3.4.9-3.8 0-4.8-1.9-4.8-4.6V32.3zM201.1 27.9h3.3v15.3h-3.3V27.9zM205.1 42.1l1.2-2.8c.8.6 1.8.9 2.8.9 1.1 0 1.6-.4 1.6-1.4 0-1.2-.9-1.7-2-2.3-1.9-1-3-1.9-3-4.5s1.4-4.4 4.8-4.4c1.3-.1 2.5.3 3.5 1l-1.2 2.8c-.7-.4-1.4-.6-2.2-.6-.7-.1-1.3.3-1.4 1 0 .1 0 .2 0 .2 0 .9.5 1.2 1.7 1.8 2.4 1.2 3.3 2.1 3.3 4.9 0 2.9-1.6 4.6-4.7 4.6C207.9 43.5 206.4 43 205.1 42.1zM215 32.3c0-2.7 1-4.6 4.8-4.6 1.2 0 2.4.3 3.4.9l-1.3 2.7c-.6-.3-1.2-.5-1.9-.5-1.3 0-1.8.6-1.8 1.6v6.3c0 1 .5 1.6 1.8 1.6.7 0 1.3-.2 1.9-.5l1.2 2.7c-1 .6-2.2 1-3.4.9-3.8 0-4.8-1.9-4.8-4.6L215 32.3 215 32.3zM233.2 39c0 2.7-1.2 4.4-4.7 4.4s-4.7-1.7-4.7-4.4v-7c0-2.7 1.2-4.4 4.7-4.4s4.7 1.7 4.7 4.4V39zM227.2 38.6c0 1.5.2 2 1.3 2s1.3-.5 1.3-2v-6.1c0-1.5-.2-2-1.3-2s-1.3.5-1.3 2V38.6zM124 46.5h2.8v9.4h1.5v2.4h-1.5v3.6h-3.3v-3.6h-4.2v-2L124 46.5zM123.5 55.9l.1-4.1-1.8 4.2L123.5 55.9zM133.4 46.5c2.8 0 4.2 1.1 4.2 3.2v5.4c0 4-1.9 5.8-4.8 6.9l-3.2-1v-.4c2.8-1 4.9-2.2 4.9-4.7-.7.7-1.6 1.1-2.6 1-1.9 0-2.7-.9-2.7-2.8v-4.3C129.1 47.6 130.6 46.5 133.4 46.5zM132.2 53.3c0 .7.2 1.1.9 1.1.5 0 1.1-.3 1.4-.7v-3.3c.1-.5-.2-1.1-.7-1.2-.1 0-.2 0-.4 0-.5-.1-1.1.3-1.2.8 0 .1 0 .3 0 .4V53.3zM138.8 61.8V46.5h8.3v3h-5v3.1h3.8v2.9h-3.8v3.3h5v3L138.8 61.8 138.8 61.8zM151.5 61.8h-3.3V46.5h4.9c3.6 0 4.7 1.8 4.7 4.5v.3c0 1.8-.6 3.2-2 3.9l2.4 6.6h-3.9l-1.7-5.9h-1L151.5 61.8 151.5 61.8zM152.8 49.3h-1.2v3.8h1.2c1.3 0 1.6-.5 1.6-1.8C154.4 49.9 154.2 49.3 152.8 49.3L152.8 49.3z"/>
  <path class="st0" d="M158 60.7l1.2-2.8c.8.6 1.8.9 2.8.9 1.1 0 1.6-.4 1.6-1.4 0-1.2-.9-1.7-2-2.3-1.9-1-3-1.9-3-4.5s1.4-4.4 4.8-4.4c1.3-.1 2.5.3 3.5 1l-1.2 2.8c-.7-.4-1.4-.6-2.2-.6-.7-.1-1.3.3-1.5 1 0 .1 0 .2 0 .3 0 .9.5 1.2 1.7 1.8 2.4 1.2 3.3 2.1 3.3 4.9 0 2.9-1.6 4.6-4.7 4.6C160.8 62.1 159.3 61.6 158 60.7zM51 75.2c17.2 0 34.3-5.9 43.3-14.9 4.6-4.6 7-9.9 7-15.4S99 34.2 94.4 29.6c-9-9-26.1-14.8-43.5-14.8-12.2 0-24.6 2.9-34.1 7.9C6 28.4 0 36.3 0 44.9c0 5.4 2.4 10.6 7 15.2s11.2 8.4 19.2 11.1C34.2 73.8 42.6 75.2 51 75.2z"/>
  <path d="M17.6,24.1c-10.3,5.4-16,12.8-16,20.7c0,4.9,2.2,9.8,6.5,14.1S18.9,67,26.6,69.6c7.9,2.6,16.1,4,24.4,3.9
	c16.9,0,33.4-5.7,42.2-14.5c4.3-4.3,6.6-9.2,6.6-14.2s-2.2-9.8-6.5-14.1C84.6,22.1,68,16.4,51,16.4C39,16.4,26.9,19.3,17.6,24.1z"/>
  <path d="M50.9,70.7c14.9,0,29-4.9,36.8-12.7c3.9-4,6-8.5,6-13s-2.1-9.1-6-13c-7.8-7.9-22-12.7-36.8-12.7
	C40,19.3,29.1,22,21,26.7C12.7,31.6,8,38.1,8,45c0,4.6,2.1,9.1,6,13C21.9,65.8,36,70.7,50.9,70.7z" fill="#b2985d"/>
  <path d="M51,69.8c21.8,0,39.5-11.3,39.5-24.9S72.8,20.2,51,20.2s-39.5,11-39.5,24.7S29.2,69.8,51,69.8z" fill="#a91e22"/>
  <path d="M81.9,41.7h-0.1v-0.9H66.1c-0.4-1.8-1.4-3.5-2.8-4.7c-1.5-1.7-3.6-2.9-5.9-3.3l-1-0.2c-2.3-0.5-4-0.8-11.2-0.8
	c0,0-1.4,0-2.7-0.2c-0.3-0.1-0.6-0.2-0.9-0.3c0.1-0.6,1.2-1.4,2.4-1.6c5.6-0.7,11.3,0.6,16,3.7l0.2,0.1h5.3v-8.1h-0.9v-0.9h-7.2
	l-1.2,0.9C54,25,43.8,22.8,35,26.6c-3.7,1.5-6,4.4-5.8,7.3c0.1,1.5,0.8,2.9,2,3.8c1.1,1.3,2.6,2.2,4.2,2.5c2.3,0.7,4.6,1.1,7,1.2
	v3.7h0.9V46H46c0.6-0.1,1.3,0.3,1.5,0.9c-3.5-0.2-8.8-1.2-12.8-4.9l-0.2-0.2l0,0c-0.2-0.2-0.4-0.4-0.6-0.7L33.7,41h-4v11.5h0.9v0.9
	h3.2c0.5,0,2-0.1,3-3.2c3.5,1.2,7.2,1.9,10.9,2v7.1c-0.2,2.4-5.5,3.2-7.3,3.2h-0.8v3.6h0.9V67h23.2v-3.4l-0.6-0.2l-0.3-0.1v-0.7
	l-0.7-0.1c-1.1-0.1-2.1-0.3-3.1-0.6c-0.7-0.3-1.3-0.9-1.7-1.6v-3.8h6.8c0.7,0.1,1.3,0.4,1.8,0.8c0.6,0.8,1.1,1.7,1.4,2.6l0.2,0.6
	h0.6c0.1,0.2,0.1,0.3,0.1,0.3l0.2,0.6h3.7V47.6h-0.9v-0.9h-3.6l-0.1,0.6c-1,4.6-6.3,4.5-11,3.8c0.9-0.2,1.9-0.5,2.8-0.8
	c2.2-0.8,4.1-2.2,5.6-4H75c0.6,0,1.3,0.2,1.8,0.5c0.7,1.2,1,2.5,1,3.9v0.8h0.9v0.1v0.8h4.1V41.7H81.9z"/>
  <path class="st0" d="M65.7 44.6h8.4c4.8.2 4.5 6.2 4.5 6.2H81v-9.1H66.5C66.5 42.7 66.2 43.7 65.7 44.6zM48.5 52.3v7c-.2 3.7-8.1 4-8.1 4v2H62v-2.1c-6.4-.6-6.5-3.8-6.5-3.8v-4.6h7.7c3.5.5 4.9 4.9 4.9 4.9h2.3V47.5h-2.2c-1.5 7.4-12.8 4-13.6 4.2C52.6 52.2 50.5 52.4 48.5 52.3zM55.2 40.3c2.9.9 3.2 3.1 1.5 5.2-1.6 1.3-3.5 2.1-5.5 2.2 0 0-11.3 1.3-17.9-5.9h-2.8v9.9H33c0 0 1.5.2 2.5-3.4 0 0 11.6 4.7 22.6.3 10.7-4.2 6.6-13.5-.7-15-2.8-.6-4-1-12.1-1 0 0-1.5 0-2.9-.2-4.5-1.1-1.9-4 .7-4.3 5.8-.7 11.6.6 16.5 3.9h4.2v-6.5h-6.2l-1.3 1c0 0-11.4-3.2-20.9 1-6.4 2.6-7.6 9.2-.7 11.2 6.1 1.8 10 1 16.3 1.3C52.4 39.9 53.8 40 55.2 40.3z"/>
  <path class="st0" d="M46,44.3h-2.9v-2.6c2.3,0,6.9,0,10.2,0s3.7,1.9,2.3,3.2s-4,2.1-7.3,1.5C48.2,45.2,47.2,44.3,46,44.3z"/>
</svg>
